<svg width="65" height="65" viewBox="0 0 65 65" fill="none" xmlns="http://www.w3.org/2000/svg">
<circle cx="32.5" cy="32.5" r="32.5" fill="#083538"/>
<path d="M32 10L14 18V30C14 41.1 21.68 51.48 32 54C42.32 51.48 50 41.1 50 30V18L32 10ZM32 22C34.8 22 37.6 24.2 37.6 27V30C38.8 30 40 31.2 40 32.6V39.6C40 40.8 38.8 42 37.4 42H26.4C25.2 42 24 40.8 24 39.4V32.4C24 31.2 25.2 30 26.4 30V27C26.4 24.2 29.2 22 32 22ZM32 24.4C30.4 24.4 29 25.4 29 27V30H35V27C35 25.4 33.6 24.4 32 24.4Z" fill="#FFB622"/>
</svg>
