<svg width="36" height="36" viewBox="0 0 36 36" fill="none" xmlns="http://www.w3.org/2000/svg">
    <circle cx="18.0823" cy="17.8335" r="17.5" fill="#F8F7F4" fill-opacity="0.2"/>
    <path d="M24.9963 18.3333L20.2893 13.6263C20.1965 13.5335 20.0863 13.4599 19.965 13.4096C19.8437 13.3594 19.7136 13.3335 19.5823 13.3335C19.451 13.3335 19.321 13.3594 19.1997 13.4096C19.0784 13.4599 18.9682 13.5335 18.8753 13.6263C18.7825 13.7192 18.7088 13.8294 18.6586 13.9507C18.6084 14.072 18.5825 14.202 18.5825 14.3333C18.5825 14.4646 18.6084 14.5947 18.6586 14.716C18.7088 14.8373 18.7825 14.9475 18.8753 15.0403L21.1683 17.3333H13.5823C13.3171 17.3333 13.0628 17.4387 12.8752 17.6262C12.6877 17.8138 12.5823 18.0681 12.5823 18.3333C12.5823 18.5986 12.6877 18.8529 12.8752 19.0405C13.0628 19.228 13.3171 19.3333 13.5823 19.3333H21.1683L18.8753 21.6263C18.7822 21.719 18.7082 21.8292 18.6577 21.9505C18.6073 22.0718 18.5813 22.2019 18.5813 22.3333C18.5813 22.4648 18.6073 22.5949 18.6577 22.7162C18.7082 22.8375 18.7822 22.9477 18.8753 23.0403C18.9681 23.1333 19.0783 23.207 19.1996 23.2573C19.321 23.3077 19.451 23.3335 19.5823 23.3335C19.7137 23.3335 19.8437 23.3077 19.965 23.2573C20.0863 23.207 20.1965 23.1333 20.2893 23.0403L24.9963 18.3333Z" fill="#F6AB24"/>
    </svg>
    