<svg width="24" height="24" viewBox="0 0 24 24" fill="none" xmlns="http://www.w3.org/2000/svg">
<path d="M21.5462 7.93967C21.2649 7.65847 20.8834 7.50049 20.4857 7.50049C20.0879 7.50049 19.7065 7.65847 19.4252 7.93967L12.0002 15.3647L4.57517 7.93967C4.29227 7.66644 3.91336 7.51524 3.52007 7.51866C3.12677 7.52208 2.75056 7.67983 2.47244 7.95794C2.19433 8.23606 2.03658 8.61228 2.03316 9.00557C2.02974 9.39887 2.18093 9.77777 2.45417 10.0607L10.9397 18.5462C11.221 18.8274 11.6024 18.9854 12.0002 18.9854C12.3979 18.9854 12.7794 18.8274 13.0607 18.5462L21.5462 10.0607C21.8274 9.77938 21.9854 9.39792 21.9854 9.00017C21.9854 8.60243 21.8274 8.22096 21.5462 7.93967Z" fill="#F8F7F4"/>
</svg>
