<svg width="28" height="28" viewBox="0 0 28 28" fill="none" xmlns="http://www.w3.org/2000/svg">
<path fill-rule="evenodd" clip-rule="evenodd" d="M8.74998 4.9585C8.98204 4.9585 9.2046 5.05068 9.36869 5.21478C9.53279 5.37887 9.62498 5.60143 9.62498 5.8335V20.0983L12.2231 17.5748C12.3053 17.4935 12.4028 17.4293 12.5099 17.3859C12.617 17.3424 12.7317 17.3207 12.8473 17.3218C12.9629 17.323 13.0771 17.347 13.1834 17.3925C13.2896 17.4381 13.3858 17.5042 13.4663 17.5872C13.5469 17.6701 13.6102 17.7681 13.6526 17.8757C13.695 17.9832 13.7157 18.0981 13.7135 18.2137C13.7112 18.3292 13.6861 18.4432 13.6396 18.549C13.593 18.6549 13.526 18.7504 13.4423 18.8302L9.35898 22.7945C9.19568 22.9531 8.97702 23.0418 8.74939 23.0418C8.52177 23.0418 8.30311 22.9531 8.13981 22.7945L4.05648 18.8302C3.9728 18.7504 3.90575 18.6549 3.85921 18.549C3.81266 18.4432 3.78755 18.3292 3.78532 18.2137C3.78309 18.0981 3.80378 17.9832 3.8462 17.8757C3.88862 17.7681 3.95192 17.6701 4.03246 17.5872C4.113 17.5042 4.20917 17.4381 4.31542 17.3925C4.42167 17.347 4.53589 17.323 4.65148 17.3218C4.76708 17.3207 4.88175 17.3424 4.98888 17.3859C5.09601 17.4293 5.19348 17.4935 5.27564 17.5748L7.87498 20.0972V5.8335C7.87498 5.60143 7.96716 5.37887 8.13126 5.21478C8.29535 5.05068 8.51791 4.9585 8.74998 4.9585ZM18.6398 5.20583C18.8031 5.04725 19.0218 4.95855 19.2494 4.95855C19.477 4.95855 19.6957 5.04725 19.859 5.20583L23.9423 9.17016C24.1062 9.3324 24.1995 9.5528 24.2018 9.78342C24.2041 10.0141 24.1152 10.2363 23.9545 10.4017C23.7938 10.5672 23.5743 10.6625 23.3437 10.6669C23.1131 10.6714 22.8901 10.5846 22.7231 10.4255L20.125 7.90316V22.1668C20.125 22.3989 20.0328 22.6215 19.8687 22.7855C19.7046 22.9496 19.482 23.0418 19.25 23.0418C19.0179 23.0418 18.7954 22.9496 18.6313 22.7855C18.4672 22.6215 18.375 22.3989 18.375 22.1668V7.90316L15.7756 10.4255C15.6087 10.5846 15.3857 10.6714 15.1551 10.6669C14.9245 10.6625 14.705 10.5672 14.5443 10.4017C14.3836 10.2363 14.2947 10.0141 14.297 9.78342C14.2993 9.5528 14.3925 9.3324 14.5565 9.17016L18.6398 5.20583Z" fill="#E8AC25"/>
</svg>
