<svg width="24" height="24" viewBox="0 0 24 24" fill="none" xmlns="http://www.w3.org/2000/svg">
<path d="M1.22043 17.3123C1.50172 17.5935 1.88318 17.7515 2.28093 17.7515C2.67868 17.7515 3.06014 17.5935 3.34143 17.3123L10.7664 9.88728L18.1914 17.3123C18.4743 17.5855 18.8532 17.7367 19.2465 17.7333C19.6398 17.7299 20.016 17.5721 20.2942 17.294C20.5723 17.0159 20.73 16.6397 20.7334 16.2464C20.7369 15.8531 20.5857 15.4742 20.3124 15.1913L11.8269 6.70578C11.5456 6.42457 11.1642 6.2666 10.7664 6.2666C10.3687 6.2666 9.98722 6.42457 9.70593 6.70578L1.22043 15.1913C0.939223 15.4726 0.78125 15.854 0.78125 16.2518C0.78125 16.6495 0.939223 17.031 1.22043 17.3123Z" fill="#E8AC25"/>
</svg>
