<svg width="16" height="10" viewBox="0 0 16 10" fill="none" xmlns="http://www.w3.org/2000/svg">
<path d="M15.6478 0.352268C15.4222 0.126764 15.1163 8.39233e-05 14.7974 8.39233e-05C14.4784 8.39233e-05 14.1725 0.126764 13.947 0.352268L7.99274 6.30648L2.03852 0.352268C1.81166 0.133156 1.50781 0.0119133 1.19242 0.0146532C0.877029 0.0173941 0.575334 0.143899 0.352312 0.36692C0.12929 0.589943 0.00278568 0.891639 4.57764e-05 1.20703C-0.00269508 1.52242 0.118547 1.82626 0.33766 2.05313L7.14231 8.85778C7.36788 9.08328 7.67378 9.20996 7.99274 9.20996C8.3117 9.20996 8.6176 9.08328 8.84317 8.85778L15.6478 2.05313C15.8733 1.82756 16 1.52166 16 1.2027C16 0.88374 15.8733 0.57784 15.6478 0.352268Z" fill="black"/>
</svg>
