<svg width="19" height="19" viewBox="0 0 19 19" fill="none" xmlns="http://www.w3.org/2000/svg">
<g clip-path="url(#clip0_2772_1010)">
<path d="M12.5 9.59473C12.5 10.4229 12.207 11.1299 11.6211 11.7158C11.0352 12.3018 10.3281 12.5947 9.5 12.5947C8.67188 12.5947 7.96484 12.3018 7.37891 11.7158C6.79297 11.1299 6.5 10.4229 6.5 9.59473C6.5 8.7666 6.79297 8.05957 7.37891 7.47363C7.96484 6.8877 8.67188 6.59473 9.5 6.59473C10.3281 6.59473 11.0352 6.8877 11.6211 7.47363C12.207 8.05957 12.5 8.7666 12.5 9.59473ZM9.5 3.21973C8.34375 3.21973 7.27734 3.50488 6.30078 4.0752C5.32422 4.64551 4.55078 5.41895 3.98047 6.39551C3.41016 7.37207 3.125 8.43848 3.125 9.59473C3.125 10.751 3.41016 11.8174 3.98047 12.7939C4.55078 13.7705 5.32422 14.5439 6.30078 15.1143C7.27734 15.6846 8.34375 15.9697 9.5 15.9697C10.6562 15.9697 11.7227 15.6846 12.6992 15.1143C13.6758 14.5439 14.4492 13.7705 15.0195 12.7939C15.5898 11.8174 15.875 10.751 15.875 9.59473C15.875 8.43848 15.5898 7.37207 15.0195 6.39551C14.4492 5.41895 13.6758 4.64551 12.6992 4.0752C11.7227 3.50488 10.6562 3.21973 9.5 3.21973ZM18.5 9.59473C18.5 11.2275 18.0977 12.7334 17.293 14.1123C16.4883 15.4912 15.3965 16.583 14.0176 17.3877C12.6387 18.1924 11.1328 18.5947 9.5 18.5947C7.86719 18.5947 6.36133 18.1924 4.98242 17.3877C3.60352 16.583 2.51172 15.4912 1.70703 14.1123C0.902344 12.7334 0.5 11.2275 0.5 9.59473C0.5 7.96191 0.902344 6.45605 1.70703 5.07715C2.51172 3.69824 3.60352 2.60645 4.98242 1.80176C6.36133 0.99707 7.86719 0.594727 9.5 0.594727C11.1328 0.594727 12.6387 0.99707 14.0176 1.80176C15.3965 2.60645 16.4883 3.69824 17.293 5.07715C18.0977 6.45605 18.5 7.96191 18.5 9.59473Z" fill="#16EBD3" fill-opacity="0.8"/>
</g>
<defs>
<clipPath id="clip0_2772_1010">
<rect width="18" height="18" fill="white" transform="translate(0.5 0.594727)"/>
</clipPath>
</defs>
</svg>
