<svg width="24" height="25" viewBox="0 0 24 25" fill="none" xmlns="http://www.w3.org/2000/svg">
    <path d="M22 12.0952C21.9995 9.44321 20.9457 6.89998 19.0705 5.02473C17.1952 3.14948 14.652 2.09575 12 2.09521V4.09521C13.5821 4.09557 15.1286 4.56485 16.4441 5.44375C17.7596 6.32265 18.7851 7.57175 19.391 9.03321C19.7931 10.004 20.0001 11.0445 20 12.0952H22ZM2 10.0952V5.09521C2 4.83 2.10536 4.57564 2.29289 4.38811C2.48043 4.20057 2.73478 4.09521 3 4.09521H8C8.26522 4.09521 8.51957 4.20057 8.70711 4.38811C8.89464 4.57564 9 4.83 9 5.09521V9.09521C9 9.36043 8.89464 9.61479 8.70711 9.80232C8.51957 9.98986 8.26522 10.0952 8 10.0952H6C6 12.2169 6.84285 14.2518 8.34315 15.7521C9.84344 17.2524 11.8783 18.0952 14 18.0952V16.0952C14 15.83 14.1054 15.5756 14.2929 15.3881C14.4804 15.2006 14.7348 15.0952 15 15.0952H19C19.2652 15.0952 19.5196 15.2006 19.7071 15.3881C19.8946 15.5756 20 15.83 20 16.0952V21.0952C20 21.3604 19.8946 21.6148 19.7071 21.8023C19.5196 21.9899 19.2652 22.0952 19 22.0952H14C7.373 22.0952 2 16.7222 2 10.0952Z" fill="#F8F7F4"/>
    <path d="M17.543 9.79922C17.8449 10.527 18.0002 11.3073 18 12.0952H16.2C16.2001 11.5436 16.0916 10.9974 15.8806 10.4878C15.6695 9.97816 15.3602 9.51511 14.9701 9.12507C14.5801 8.73504 14.1171 8.42568 13.6074 8.21465C13.0978 8.00363 12.5516 7.89508 12 7.89522V6.09521C13.1867 6.09528 14.3466 6.44721 15.3333 7.10652C16.3199 7.76582 17.0889 8.70288 17.543 9.79922Z" fill="#F8F7F4"/>
    </svg>
    