<svg width="16" height="12" viewBox="0 0 16 12" fill="none" xmlns="http://www.w3.org/2000/svg">
<path fill-rule="evenodd" clip-rule="evenodd" d="M13.7798 11.28C13.6392 11.4205 13.4486 11.4993 13.2498 11.4993C13.0511 11.4993 12.8605 11.4205 12.7198 11.28L10.7198 9.28C10.6462 9.21134 10.5871 9.12854 10.5461 9.03654C10.5051 8.94454 10.483 8.84523 10.4813 8.74452C10.4795 8.64382 10.498 8.54379 10.5357 8.4504C10.5734 8.35701 10.6296 8.27218 10.7008 8.20096C10.772 8.12974 10.8569 8.0736 10.9502 8.03588C11.0436 7.99816 11.1437 7.97963 11.2444 7.98141C11.3451 7.98318 11.4444 8.00523 11.5364 8.04622C11.6284 8.08721 11.7112 8.14631 11.7798 8.22L12.4998 8.94V1.25C12.4998 1.05109 12.5789 0.860322 12.7195 0.71967C12.8602 0.579018 13.0509 0.5 13.2498 0.5C13.4488 0.5 13.6395 0.579018 13.7802 0.71967C13.9208 0.860322 13.9998 1.05109 13.9998 1.25V8.94L14.7198 8.22C14.7885 8.14631 14.8713 8.08721 14.9633 8.04622C15.0553 8.00523 15.1546 7.98318 15.2553 7.98141C15.356 7.97963 15.4561 7.99816 15.5494 8.03588C15.6428 8.0736 15.7277 8.12974 15.7989 8.20096C15.8701 8.27218 15.9262 8.35701 15.964 8.4504C16.0017 8.54379 16.0202 8.64382 16.0184 8.74452C16.0167 8.84523 15.9946 8.94454 15.9536 9.03654C15.9126 9.12854 15.8535 9.21134 15.7798 9.28L13.7798 11.28ZM8.24985 10C8.44876 10 8.63952 10.079 8.78018 10.2197C8.92083 10.3603 8.99985 10.5511 8.99985 10.75C8.99985 10.9489 8.92083 11.1397 8.78018 11.2803C8.63952 11.421 8.44876 11.5 8.24985 11.5H0.749846C0.550934 11.5 0.360169 11.421 0.219517 11.2803C0.0788641 11.1397 -0.000154495 10.9489 -0.000154495 10.75C-0.000154495 10.5511 0.0788641 10.3603 0.219517 10.2197C0.360169 10.079 0.550934 10 0.749846 10H8.24985ZM8.24985 6.75C8.44876 6.75 8.63952 6.67098 8.78018 6.53033C8.92083 6.38968 8.99985 6.19891 8.99985 6C8.99985 5.80109 8.92083 5.61032 8.78018 5.46967C8.63952 5.32902 8.44876 5.25 8.24985 5.25H2.74985C2.55093 5.25 2.36017 5.32902 2.21952 5.46967C2.07886 5.61032 1.99985 5.80109 1.99985 6C1.99985 6.19891 2.07886 6.38968 2.21952 6.53033C2.36017 6.67098 2.55093 6.75 2.74985 6.75H8.24985ZM8.24985 2C8.44876 2 8.63952 1.92098 8.78018 1.78033C8.92083 1.63968 8.99985 1.44891 8.99985 1.25C8.99985 1.05109 8.92083 0.860322 8.78018 0.71967C8.63952 0.579018 8.44876 0.5 8.24985 0.5H5.74985C5.55093 0.5 5.36017 0.579018 5.21952 0.71967C5.07886 0.860322 4.99985 1.05109 4.99985 1.25C4.99985 1.44891 5.07886 1.63968 5.21952 1.78033C5.36017 1.92098 5.55093 2 5.74985 2H8.24985Z" fill="#000000"/>
</svg>
