<svg width="18" height="19" viewBox="0 0 18 19" fill="none" xmlns="http://www.w3.org/2000/svg">
<g clip-path="url(#clip0_1994_38565)">
<path d="M12 9.09473C12 9.92285 11.707 10.6299 11.1211 11.2158C10.5352 11.8018 9.82812 12.0947 9 12.0947C8.17188 12.0947 7.46484 11.8018 6.87891 11.2158C6.29297 10.6299 6 9.92285 6 9.09473C6 8.2666 6.29297 7.55957 6.87891 6.97363C7.46484 6.3877 8.17188 6.09473 9 6.09473C9.82812 6.09473 10.5352 6.3877 11.1211 6.97363C11.707 7.55957 12 8.2666 12 9.09473ZM9 2.71973C7.84375 2.71973 6.77734 3.00488 5.80078 3.5752C4.82422 4.14551 4.05078 4.91895 3.48047 5.89551C2.91016 6.87207 2.625 7.93848 2.625 9.09473C2.625 10.251 2.91016 11.3174 3.48047 12.2939C4.05078 13.2705 4.82422 14.0439 5.80078 14.6143C6.77734 15.1846 7.84375 15.4697 9 15.4697C10.1562 15.4697 11.2227 15.1846 12.1992 14.6143C13.1758 14.0439 13.9492 13.2705 14.5195 12.2939C15.0898 11.3174 15.375 10.251 15.375 9.09473C15.375 7.93848 15.0898 6.87207 14.5195 5.89551C13.9492 4.91895 13.1758 4.14551 12.1992 3.5752C11.2227 3.00488 10.1562 2.71973 9 2.71973ZM18 9.09473C18 10.7275 17.5977 12.2334 16.793 13.6123C15.9883 14.9912 14.8965 16.083 13.5176 16.8877C12.1387 17.6924 10.6328 18.0947 9 18.0947C7.36719 18.0947 5.86133 17.6924 4.48242 16.8877C3.10352 16.083 2.01172 14.9912 1.20703 13.6123C0.402344 12.2334 0 10.7275 0 9.09473C0 7.46191 0.402344 5.95605 1.20703 4.57715C2.01172 3.19824 3.10352 2.10645 4.48242 1.30176C5.86133 0.49707 7.36719 0.0947266 9 0.0947266C10.6328 0.0947266 12.1387 0.49707 13.5176 1.30176C14.8965 2.10645 15.9883 3.19824 16.793 4.57715C17.5977 5.95605 18 7.46191 18 9.09473Z" fill="#FF0000"/>
</g>
<defs>
<clipPath id="clip0_1994_38565">
<rect width="18" height="18" fill="white" transform="translate(0 0.0947266)"/>
</clipPath>
</defs>
</svg>
