<svg width="20" height="20" viewBox="0 0 20 20" fill="none" xmlns="http://www.w3.org/2000/svg">
<path d="M14.3484 14.8489C14.1233 15.0739 13.8181 15.2003 13.4999 15.2003C13.1816 15.2003 12.8764 15.0739 12.6514 14.8489L10.0004 11.8189L7.34938 14.8479C7.23828 14.9608 7.10593 15.0506 6.95995 15.1121C6.81397 15.1736 6.65726 15.2056 6.49885 15.2063C6.34045 15.2069 6.18348 15.1762 6.03701 15.1159C5.89053 15.0555 5.75745 14.9668 5.64544 14.8548C5.53343 14.7428 5.4447 14.6097 5.38438 14.4632C5.32406 14.3168 5.29333 14.1598 5.29398 14.0014C5.29462 13.843 5.32663 13.6863 5.38814 13.5403C5.44965 13.3943 5.53946 13.262 5.65238 13.1509L8.41038 10.0009L5.65138 6.84887C5.53846 6.73777 5.44865 6.60542 5.38714 6.45944C5.32563 6.31346 5.29362 6.15675 5.29298 5.99834C5.29233 5.83994 5.32306 5.68297 5.38338 5.5365C5.4437 5.39002 5.53243 5.25694 5.64444 5.14493C5.75645 5.03292 5.88953 4.94419 6.03601 4.88387C6.18248 4.82355 6.33945 4.79282 6.49786 4.79347C6.65626 4.79411 6.81297 4.82611 6.95895 4.88763C7.10493 4.94914 7.23728 5.03895 7.34838 5.15187L10.0004 8.18287L12.6514 5.15187C12.7625 5.03895 12.8948 4.94914 13.0408 4.88763C13.1868 4.82611 13.3435 4.79411 13.5019 4.79347C13.6603 4.79282 13.8173 4.82355 13.9638 4.88387C14.1102 4.94419 14.2433 5.03292 14.3553 5.14493C14.4673 5.25694 14.5561 5.39002 14.6164 5.5365C14.6767 5.68297 14.7074 5.83994 14.7068 5.99834C14.7061 6.15675 14.6741 6.31346 14.6126 6.45944C14.5511 6.60542 14.4613 6.73777 14.3484 6.84887L11.5904 10.0009L14.3484 13.1509C14.4599 13.2623 14.5485 13.3947 14.6089 13.5403C14.6692 13.686 14.7003 13.8422 14.7003 13.9999C14.7003 14.1576 14.6692 14.3137 14.6089 14.4594C14.5485 14.6051 14.4599 14.7374 14.3484 14.8489Z" fill="#F8F7F4"/>
</svg>
