<svg width="189" height="161" viewBox="0 0 189 161" fill="none" xmlns="http://www.w3.org/2000/svg">
<g clip-path="url(#clip0_1950_279)">
<path d="M171.682 39.8072C172.38 39.8072 173.05 39.5299 173.543 39.0364C174.037 38.5429 174.314 37.8736 174.314 37.1756V28.4125C174.311 26.1269 173.402 23.9357 171.786 22.3195C170.17 20.7034 167.979 19.7942 165.693 19.7914H151.551L148.324 10.2704C148.105 9.62287 147.643 9.08612 147.035 8.77373C146.426 8.46135 145.721 8.39785 145.067 8.59667L68.4719 31.8809C67.8379 32.1122 67.3167 32.5777 67.0157 33.1817C66.7146 33.7857 66.6566 34.4821 66.8536 35.1275C67.0505 35.773 67.4874 36.3184 68.0744 36.6514C68.6613 36.9844 69.3536 37.0798 70.0087 36.9177L144.161 14.3704L151.23 35.2388C151.454 35.8997 151.931 36.4446 152.557 36.7535C153.183 37.0625 153.906 37.1102 154.567 36.8861C155.228 36.6621 155.772 36.1847 156.081 35.5589C156.39 34.9331 156.438 34.2103 156.214 33.5493L153.335 25.0493H165.698C167.551 25.0493 169.056 26.5546 169.056 28.4072V37.1756C169.051 38.6283 170.23 39.8072 171.682 39.8072Z" fill="#083538"/>
<path d="M192.688 79.2807C191.99 79.2807 191.32 79.558 190.827 80.0515C190.333 80.545 190.056 81.2144 190.056 81.9123C190.056 82.6103 190.333 83.2796 190.827 83.7731C191.32 84.2666 191.99 84.5439 192.688 84.5439C194.535 84.5439 195.319 85.3281 195.319 87.1755V118.754C195.319 120.602 194.535 121.386 192.688 121.386H150.582C148.735 121.386 147.951 120.602 147.951 118.754V92.4386C147.951 90.5913 148.735 89.8071 150.582 89.8071H182.161C182.859 89.8071 183.529 89.5298 184.022 89.0363C184.516 88.5428 184.793 87.8734 184.793 87.1755V55.5965C184.793 50.8018 181.693 47.7018 176.898 47.7018H16.3717C9.88227 47.7018 5.84543 43.6649 5.84543 37.1755C5.84543 30.686 9.88227 26.6492 16.3717 26.6492H43.0875L27.1612 31.9018C26.8211 31.9999 26.5043 32.1656 26.2297 32.3889C25.9551 32.6123 25.7284 32.8888 25.5632 33.2018C25.398 33.5148 25.2976 33.8579 25.268 34.2107C25.2385 34.5634 25.2804 34.9185 25.3912 35.2546C25.5021 35.5908 25.6797 35.9011 25.9132 36.167C26.1468 36.433 26.4317 36.649 26.7507 36.8023C27.0698 36.9556 27.4165 37.043 27.7701 37.0592C28.1237 37.0753 28.4769 37.02 28.8086 36.8965L124.172 5.45968C124.5 5.35117 124.804 5.17905 125.066 4.95316C125.327 4.72727 125.542 4.45203 125.697 4.14315C125.853 3.83428 125.946 3.49781 125.971 3.15297C125.997 2.80813 125.954 2.46167 125.845 2.13337C125.737 1.80506 125.565 1.50134 125.339 1.23956C125.113 0.977768 124.838 0.763036 124.529 0.607621C124.22 0.452205 123.884 0.359148 123.539 0.333765C123.194 0.308381 122.847 0.351168 122.519 0.459681L58.8349 21.4597C58.7139 21.4386 58.6033 21.386 58.477 21.386H16.3717C6.92964 21.386 0.582275 27.7334 0.582275 37.1755V152.965C0.582275 162.407 6.92964 168.754 16.3717 168.754H176.898C181.693 168.754 184.793 165.654 184.793 160.86V134.544C184.793 133.846 184.516 133.177 184.022 132.683C183.529 132.19 182.859 131.912 182.161 131.912C181.463 131.912 180.794 132.19 180.3 132.683C179.807 133.177 179.53 133.846 179.53 134.544V160.86C179.53 162.707 178.745 163.491 176.898 163.491H16.3717C9.88227 163.491 5.84543 159.454 5.84543 152.965V49.3439C8.54543 51.6228 12.1191 52.965 16.3717 52.965H176.898C178.745 52.965 179.53 53.7492 179.53 55.5965V84.5439H150.582C145.788 84.5439 142.688 87.6439 142.688 92.4386V118.754C142.688 123.549 145.788 126.649 150.582 126.649H192.688C197.482 126.649 200.582 123.549 200.582 118.754V87.1755C200.582 82.3807 197.482 79.2807 192.688 79.2807Z" fill="#083538"/>
<path d="M169.003 110.86C171.91 110.86 174.267 108.503 174.267 105.597C174.267 102.69 171.91 100.333 169.003 100.333C166.097 100.333 163.74 102.69 163.74 105.597C163.74 108.503 166.097 110.86 169.003 110.86Z" fill="#083538"/>
</g>
<defs>
<clipPath id="clip0_1950_279">
<rect width="200" height="168.421" fill="white" transform="translate(0.582275 0.333496)"/>
</clipPath>
</defs>
</svg>
