<svg width="16" height="16" viewBox="0 0 16 16" fill="none" xmlns="http://www.w3.org/2000/svg">
<path d="M12.6667 4.0598V12.0598L13.5267 11.1931C13.6522 11.0676 13.8225 10.9971 14 10.9971C14.1776 10.9971 14.3478 11.0676 14.4734 11.1931C14.5989 11.3187 14.6694 11.4889 14.6694 11.6665C14.6694 11.844 14.5989 12.0143 14.4734 12.1398L12.4734 14.1398C12.4114 14.2023 12.3377 14.2519 12.2564 14.2857C12.1752 14.3196 12.088 14.337 12 14.337C11.912 14.337 11.8249 14.3196 11.7437 14.2857C11.6624 14.2519 11.5887 14.2023 11.5267 14.1398L9.52671 12.1398C9.46422 12.0778 9.41462 12.0041 9.38078 11.9228C9.34693 11.8416 9.32951 11.7545 9.32951 11.6665C9.32951 11.5785 9.34693 11.4913 9.38078 11.4101C9.41462 11.3288 9.46422 11.2551 9.52671 11.1931C9.58868 11.1306 9.66242 11.081 9.74365 11.0472C9.82489 11.0134 9.91203 10.9959 10 10.9959C10.088 10.9959 10.1752 11.0134 10.2564 11.0472C10.3377 11.081 10.4114 11.1306 10.4734 11.1931L11.3334 12.0598V4.0598C11.336 3.92322 11.3117 3.78745 11.2619 3.66025C11.2121 3.53306 11.1377 3.41693 11.043 3.31849C10.9482 3.22006 10.8351 3.14125 10.7099 3.08656C10.5847 3.03188 10.45 3.0024 10.3134 2.9998H8.66671C8.48989 2.9998 8.32033 2.92956 8.1953 2.80453C8.07028 2.67951 8.00004 2.50994 8.00004 2.33313C8.00004 2.15632 8.07028 1.98675 8.1953 1.86173C8.32033 1.7367 8.48989 1.66646 8.66671 1.66646H10.3134C10.625 1.66908 10.9332 1.73306 11.2201 1.85475C11.507 1.97645 11.7672 2.15347 11.9857 2.37571C12.2043 2.59796 12.3769 2.86107 12.4937 3.15003C12.6106 3.43898 12.6693 3.74812 12.6667 4.0598ZM6.47337 3.8598C6.59891 3.98533 6.66943 4.1556 6.66943 4.33313C6.66943 4.51066 6.59891 4.68093 6.47337 4.80646C6.34784 4.932 6.17757 5.00252 6.00004 5.00252C5.8225 5.00252 5.65224 4.932 5.52671 4.80646L4.66671 3.9398V11.9398C4.66405 12.0764 4.68834 12.2121 4.73816 12.3393C4.78799 12.4665 4.86239 12.5827 4.95712 12.6811C5.05184 12.7795 5.16502 12.8583 5.29021 12.913C5.41539 12.9677 5.55012 12.9972 5.68671 12.9998H7.33337C7.51018 12.9998 7.67975 13.07 7.80478 13.1951C7.9298 13.3201 8.00004 13.4897 8.00004 13.6665C8.00004 13.8433 7.9298 14.0128 7.80478 14.1379C7.67975 14.2629 7.51018 14.3331 7.33337 14.3331H5.68671C5.37503 14.3305 5.06693 14.2665 4.77998 14.1448C4.49303 14.0231 4.23287 13.8461 4.01434 13.6239C3.79581 13.4016 3.6232 13.1385 3.50636 12.8496C3.38951 12.5606 3.33074 12.2515 3.33337 11.9398V3.9398L2.47337 4.80646C2.4114 4.86895 2.33766 4.91854 2.25642 4.95239C2.17518 4.98624 2.08805 5.00366 2.00004 5.00366C1.91203 5.00366 1.82489 4.98624 1.74365 4.95239C1.66241 4.91854 1.58868 4.86895 1.52671 4.80646C1.46422 4.74449 1.41462 4.67075 1.38078 4.58951C1.34693 4.50827 1.32951 4.42114 1.32951 4.33313C1.32951 4.24512 1.34693 4.15798 1.38078 4.07675C1.41462 3.99551 1.46422 3.92177 1.52671 3.8598L3.52671 1.8598C3.58868 1.79731 3.66242 1.74771 3.74365 1.71387C3.82489 1.68002 3.91203 1.6626 4.00004 1.6626C4.08805 1.6626 4.17518 1.68002 4.25642 1.71387C4.33766 1.74771 4.4114 1.79731 4.47337 1.8598L6.47337 3.8598Z" fill="#000000"/>
</svg>
