<svg width="28" height="28" viewBox="0 0 28 28" fill="none" xmlns="http://www.w3.org/2000/svg">
<path d="M15.4004 6.6499C15.4004 7.11403 15.216 7.55915 14.8878 7.88734C14.5596 8.21553 14.1145 8.3999 13.6504 8.3999C13.1863 8.3999 12.7411 8.21553 12.413 7.88734C12.0848 7.55915 11.9004 7.11403 11.9004 6.6499C11.9004 6.18577 12.0848 5.74065 12.413 5.41246C12.7411 5.08428 13.1863 4.8999 13.6504 4.8999C14.1145 4.8999 14.5596 5.08428 14.8878 5.41246C15.216 5.74065 15.4004 6.18577 15.4004 6.6499ZM15.4004 13.6499C15.4004 14.114 15.216 14.5592 14.8878 14.8873C14.5596 15.2155 14.1145 15.3999 13.6504 15.3999C13.1863 15.3999 12.7411 15.2155 12.413 14.8873C12.0848 14.5592 11.9004 14.114 11.9004 13.6499C11.9004 13.1858 12.0848 12.7407 12.413 12.4125C12.7411 12.0843 13.1863 11.8999 13.6504 11.8999C14.1145 11.8999 14.5596 12.0843 14.8878 12.4125C15.216 12.7407 15.4004 13.1858 15.4004 13.6499ZM15.4004 20.6499C15.4004 21.114 15.216 21.5592 14.8878 21.8873C14.5596 22.2155 14.1145 22.3999 13.6504 22.3999C13.1863 22.3999 12.7411 22.2155 12.413 21.8873C12.0848 21.5592 11.9004 21.114 11.9004 20.6499C11.9004 20.1858 12.0848 19.7407 12.413 19.4125C12.7411 19.0843 13.1863 18.8999 13.6504 18.8999C14.1145 18.8999 14.5596 19.0843 14.8878 19.4125C15.216 19.7407 15.4004 20.1858 15.4004 20.6499Z" fill="#F8F7F4"/>
</svg>
