<svg width="18" height="19" viewBox="0 0 18 19" fill="none" xmlns="http://www.w3.org/2000/svg">
<path fill-rule="evenodd" clip-rule="evenodd" d="M9.27683 17.1466C8.70123 16.8073 8.13656 16.4497 7.5837 16.0745C7.0197 15.692 6.4782 15.2795 5.9592 14.837C5.44395 14.3922 4.96095 13.9145 4.5102 13.4037C4.0602 12.8919 3.66308 12.335 3.32895 11.741C2.99279 11.1403 2.72848 10.5022 2.54145 9.83973C2.34489 9.13744 2.24682 8.41125 2.25008 7.68198V4.08198L2.81258 3.51948C3.18758 3.51948 3.55133 3.50598 3.90383 3.47898C4.23758 3.45273 4.56833 3.40473 4.89608 3.33498C5.21558 3.26448 5.52758 3.16848 5.83208 3.04698C6.15233 2.91423 6.45833 2.7541 6.75008 2.5666C7.1629 2.29476 7.61108 2.08089 8.08208 1.93098C8.81247 1.71993 9.5792 1.66549 10.3321 1.77123C10.8163 1.83831 11.2863 1.98385 11.7237 2.2021C11.9472 2.31085 12.1647 2.4316 12.3762 2.56435C12.6695 2.75185 12.9773 2.91235 13.2998 3.04585C13.6036 3.1681 13.9152 3.2641 14.2347 3.33385C14.5632 3.40435 14.8947 3.45273 15.2292 3.47898C15.5795 3.50523 15.9421 3.51835 16.3171 3.51835L16.8796 4.08085V7.68085C16.884 8.41034 16.7871 9.13692 16.5916 9.83973C16.4046 10.5022 16.1402 11.1403 15.8041 11.741C15.4686 12.3344 15.0728 12.8916 14.6228 13.4037C14.1728 13.9137 13.6906 14.39 13.1761 14.8325C12.657 15.2755 12.1131 15.6887 11.5471 16.07C10.992 16.4458 10.4255 16.8045 9.84833 17.1455H9.27683V17.1466ZM3.37508 4.63323V7.68198C3.37058 8.30635 3.45383 8.93073 3.62258 9.5326C3.78456 10.1103 4.01494 10.6666 4.30883 11.1897C4.60583 11.7162 4.95458 12.2067 5.35508 12.6612C5.77133 13.1315 6.21683 13.5717 6.69158 13.982C7.17758 14.3967 7.68458 14.783 8.21258 15.1407C8.66258 15.4407 9.11258 15.7291 9.56258 16.0059C10.0126 15.7336 10.4626 15.4456 10.9126 15.1419C11.4421 14.7826 11.9502 14.396 12.437 13.982C12.911 13.5717 13.3557 13.1322 13.7712 12.6635C14.1696 12.2103 14.5202 11.7171 14.8175 11.192C15.1111 10.6689 15.3417 10.112 15.5037 9.53485C15.6725 8.93073 15.7546 8.3086 15.7512 7.68198V4.63323C15.5723 4.63323 15.3991 4.61973 15.2281 4.60735L15.1392 4.6006C14.7543 4.5701 14.3718 4.51486 13.994 4.43523C13.2048 4.26317 12.4523 3.95316 11.771 3.51948C11.5959 3.40831 11.4149 3.30691 11.2287 3.21573C10.8948 3.05104 10.5366 2.9409 10.1678 2.88948C9.58175 2.80408 8.98419 2.84473 8.41508 3.00873C8.04158 3.13023 7.68495 3.30123 7.35758 3.51723C7.00658 3.74223 6.63795 3.9346 6.2517 4.09435C5.88676 4.23998 5.5105 4.35549 5.1267 4.43973C4.74945 4.51923 4.36808 4.57398 3.98258 4.60398C3.78608 4.61598 3.58358 4.62573 3.37508 4.63323ZM10.1982 9.47073C10.5607 9.32332 10.8608 9.05448 11.0469 8.71025C11.2331 8.36601 11.2938 7.96776 11.2187 7.58368C11.1436 7.1996 10.9374 6.85356 10.6352 6.6048C10.3331 6.35604 9.95393 6.22001 9.56258 6.22001C9.17122 6.22001 8.79204 6.35604 8.48992 6.6048C8.1878 6.85356 7.98154 7.1996 7.90644 7.58368C7.83134 7.96776 7.89207 8.36601 8.07823 8.71025C8.2644 9.05448 8.56442 9.32332 8.92695 9.47073L8.43758 12.407H10.6876L10.1982 9.47073Z" fill="#16EBD3"/>
</svg>
