<svg width="21" height="20" viewBox="0 0 21 20" fill="none" xmlns="http://www.w3.org/2000/svg">
    <path d="M17.3262 16.3611H14.4812V11.9048C14.4812 10.8423 14.462 9.47423 13.0011 9.47423C11.5194 9.47423 11.2922 10.6327 11.2922 11.8264V16.3611H8.44719V7.19728H11.1786V8.45016H11.217C11.7738 7.4997 12.8107 6.93006 13.9116 6.97007C16.7949 6.97007 17.3278 8.86619 17.3278 11.3351L17.3262 16.3595V16.3611ZM5.23737 5.9444C4.80034 5.9423 4.38179 5.76787 4.07261 5.45899C3.76343 5.15011 3.58859 4.73172 3.58606 4.2947C3.58606 3.38904 4.33171 2.64339 5.23737 2.64339C6.14304 2.64339 6.88709 3.38904 6.88869 4.2947C6.88869 5.20035 6.14304 5.9444 5.23737 5.9444ZM6.65987 16.3611H3.81168V7.19728H6.65987V16.3611ZM18.7423 2.37827e-05H2.38118C2.0102 -0.00213096 1.65335 0.142208 1.38819 0.401675C1.12303 0.661142 0.970984 1.01477 0.965088 1.38571V17.8156C0.970984 18.1865 1.12303 18.5401 1.38819 18.7996C1.65335 19.0591 2.0102 19.2034 2.38118 19.2012H18.7439C19.1157 19.2043 19.4737 19.0604 19.7401 18.8009C20.0064 18.5415 20.1596 18.1873 20.1664 17.8156V1.38411C20.1596 1.01261 20.0063 0.658831 19.7399 0.399871C19.4734 0.140911 19.1154 -0.00223735 18.7439 0.00162377L18.7423 2.37827e-05Z" fill="#0A66C2"/>
    </svg>
    