<svg width="24" height="25" viewBox="0 0 24 25" fill="none" xmlns="http://www.w3.org/2000/svg">
    <path d="M22.5311 15.6118L22.012 15.4608C21.9888 15.3407 21.9539 15.2245 21.9152 15.1044C22.4885 13.772 22.7828 12.3505 22.7828 10.8747C22.7828 4.92915 17.945 0.0952148 11.9995 0.0952148C6.05387 0.0952148 1.21606 4.92915 1.21606 10.8747C1.21606 12.3117 1.49882 13.7061 2.04496 15.027C1.97136 15.209 1.91326 15.3988 1.89002 15.5886L1.38649 15.7551C0.875209 15.9256 0.456888 16.2858 0.21674 16.7661C-0.0272803 17.2464 -0.0660138 17.7964 0.104413 18.3077L0.631188 19.8996C0.801615 20.4148 1.16184 20.8292 1.64213 21.0732C1.92876 21.2166 2.23475 21.2863 2.54462 21.2863C2.75765 21.2863 2.97456 21.2514 3.18372 21.1856L3.68726 21.0113C4.1017 21.4373 4.66721 21.6736 5.24821 21.6736C5.43413 21.6736 5.62005 21.6426 5.8021 21.5961C5.85246 21.8518 5.96091 22.15 6.18169 22.4328C6.83241 23.2694 8.16871 23.7342 10.1441 23.8233C10.2061 24.2416 10.5392 24.5709 10.9614 24.6251L13.1111 24.8807C13.1498 24.8846 13.1847 24.8885 13.2234 24.8885C13.452 24.8885 13.6766 24.8033 13.8509 24.6483C14.0484 24.4702 14.1646 24.2145 14.1646 23.9434V22.4173C14.1646 22.15 14.0484 21.8905 13.8509 21.7123C13.6495 21.5342 13.3784 21.449 13.1111 21.4838L10.9614 21.7395C10.4888 21.7976 10.1325 22.1965 10.1325 22.6729V23.0796C8.02153 22.9789 7.15002 22.4405 6.7898 21.9951C6.60001 21.755 6.54191 21.5303 6.53029 21.3715L6.7317 21.3056C6.93312 21.2437 7.0958 21.1042 7.18876 20.9106C7.28172 20.7246 7.29721 20.5077 7.23137 20.3141L5.15913 14.0393C5.09715 13.8456 4.95771 13.6829 4.76792 13.5861C4.63235 13.5202 4.48516 13.4931 4.34185 13.5047C4.04748 12.6642 3.90416 11.785 3.90416 10.8786C3.90416 6.41651 7.53736 2.78332 11.9995 2.78332C16.4615 2.78332 20.0947 6.41651 20.0947 10.8786C20.0947 11.7888 19.9359 12.672 19.6493 13.5125C19.4518 13.4583 19.2426 13.4854 19.0644 13.5861C18.8824 13.6868 18.7507 13.8572 18.6926 14.0547L16.8876 20.4109C16.8295 20.6123 16.8566 20.8254 16.9573 21.0074C17.058 21.1933 17.2285 21.3211 17.4299 21.3792L18.2355 21.6078C18.4331 21.6659 18.6345 21.693 18.832 21.693C19.4479 21.693 20.0405 21.4296 20.4588 20.9609L20.974 21.1081C21.1599 21.1623 21.342 21.1856 21.5279 21.1856C22.4071 21.1856 23.2167 20.6046 23.4684 19.7176L23.9255 18.1024C24.2237 17.0295 23.6001 15.914 22.5311 15.6118ZM10.8839 22.6691C10.8839 22.5722 10.9536 22.4909 11.0544 22.4793L13.2041 22.2236H13.2273C13.2893 22.2236 13.3319 22.2546 13.3551 22.274C13.3784 22.2972 13.4171 22.3398 13.4171 22.4173V23.9434C13.4171 24.017 13.3745 24.0673 13.3551 24.0906C13.3319 24.1099 13.2777 24.1487 13.2041 24.1371L11.0544 23.8814C10.9575 23.8698 10.8839 23.7885 10.8839 23.6916V22.6691ZM2.94357 20.469C2.62596 20.5736 2.27736 20.5465 1.97911 20.3993C1.67312 20.2482 1.44846 19.9848 1.34388 19.6672L0.817109 18.0675C0.708655 17.7499 0.735768 17.4013 0.882955 17.1031C1.03789 16.7971 1.2974 16.5724 1.61889 16.4678L1.92876 16.3671C1.94425 16.4291 1.95587 16.5027 1.97911 16.5647L3.16823 20.1746C3.19147 20.2405 3.22633 20.3024 3.24957 20.3605L2.94357 20.469ZM4.37671 14.26L4.40382 14.2523C4.4077 14.2484 4.41157 14.2484 4.41157 14.2484C4.42706 14.2484 4.44643 14.26 4.4503 14.2755L6.32113 19.9345L6.52254 20.5697C6.51867 20.5775 6.51092 20.5813 6.50318 20.5852L5.70139 20.8486C5.12039 21.0423 4.47742 20.8447 4.10558 20.3528C4.01262 20.2289 3.93902 20.0894 3.88867 19.9384L2.69568 16.3245C2.64145 16.1812 2.62209 16.0224 2.62209 15.8636C2.62209 15.6467 2.68019 15.4182 2.78864 15.209C2.96681 14.8798 3.25732 14.6319 3.60979 14.5118L4.37671 14.26ZM11.9995 2.02801C7.11904 2.02801 3.15273 5.99819 3.15273 10.8747C3.15273 11.8508 3.31929 12.7998 3.62916 13.7139L3.36577 13.7991C3.05977 13.8998 2.79251 14.0741 2.56011 14.2871C2.16503 13.1987 1.96362 12.0522 1.96362 10.8747C1.96749 5.34747 6.46832 0.846644 11.9995 0.846644C17.5267 0.846644 22.0314 5.34747 22.0314 10.8747C22.0314 12.0638 21.8261 13.2181 21.4233 14.3104C21.1599 14.0431 20.8345 13.8456 20.4666 13.741L20.3697 13.7139C20.6796 12.8037 20.8462 11.8547 20.8462 10.8747C20.8462 5.99819 16.876 2.02801 11.9995 2.02801ZM20.2109 19.8919C20.1645 20.0468 20.0986 20.1862 20.0095 20.3179C19.6609 20.8253 19.0296 21.0539 18.4408 20.8834L17.6352 20.6549C17.6158 20.6472 17.6081 20.6239 17.6119 20.6084L19.4169 14.2562C19.4208 14.2407 19.4363 14.229 19.4518 14.229H19.4556L20.2613 14.4576C20.668 14.5776 21.0011 14.8643 21.1754 15.2477C21.2529 15.4143 21.2955 15.5886 21.3032 15.7668V15.7784C21.3148 15.9333 21.2955 16.0883 21.249 16.2393L20.2109 19.8919ZM23.2012 17.8971L22.7402 19.5123C22.5504 20.1824 21.8455 20.5736 21.1793 20.3838L20.8655 20.2947C20.8888 20.2327 20.9198 20.1669 20.9353 20.101L21.9733 16.4485C21.9965 16.3826 22.0043 16.3129 22.0198 16.2432L22.3335 16.3323C22.9959 16.5221 23.391 17.227 23.2012 17.8971Z" fill="#F8F7F4"/>
    </svg>
    