<svg width="80" height="80" viewBox="0 0 80 80" fill="none" xmlns="http://www.w3.org/2000/svg">
    <path d="M40 80C17.908 80 0 62.092 0 40C0 17.908 17.908 0 40 0C62.092 0 80 17.908 80 40C80 62.092 62.092 80 40 80ZM40 72C48.4869 72 56.6263 68.6286 62.6274 62.6274C68.6286 56.6263 72 48.4869 72 40C72 31.5131 68.6286 23.3737 62.6274 17.3726C56.6263 11.3714 48.4869 8 40 8C31.5131 8 23.3737 11.3714 17.3726 17.3726C11.3714 23.3737 8 31.5131 8 40C8 48.4869 11.3714 56.6263 17.3726 62.6274C23.3737 68.6286 31.5131 72 40 72ZM56.504 46.984L40.284 58.576C36.664 61.16 31.764 60.132 29.336 56.272C28.4598 54.8685 27.9967 53.2465 28 51.592V28.408C28 23.768 31.532 20 35.888 20C37.452 20 38.984 20.496 40.284 21.424L56.504 33.016C60.124 35.604 61.088 40.824 58.664 44.684C58.1003 45.5838 57.3666 46.365 56.504 46.984ZM35.888 28.408V51.592L52.108 40L35.888 28.408Z" fill="#DFC21C"/>
    </svg>
    