<svg width="83" height="68" viewBox="0 0 83 68" fill="none" xmlns="http://www.w3.org/2000/svg">
<path d="M0 0H73C78.5229 0 83 4.47715 83 10V58C83 63.5228 78.5229 68 73 68H0V0Z" fill="#E8AC25"/>
<g clip-path="url(#clip0_2403_17016)">
<path fill-rule="evenodd" clip-rule="evenodd" d="M40.2498 22.3335C38.6685 22.3336 37.1101 22.7119 35.7048 23.4368C34.2994 24.1617 33.0877 25.2121 32.1709 26.5005C31.2541 27.7889 30.6587 29.2779 30.4343 30.8432C30.2099 32.4085 30.3632 34.0048 30.8812 35.4988C31.3992 36.9929 32.2671 38.3414 33.4123 39.4318C34.5574 40.5223 35.9468 41.3231 37.4644 41.7674C38.982 42.2117 40.5839 42.2866 42.1363 41.9859C43.6888 41.6852 45.1468 41.0176 46.3888 40.0388L50.6495 44.2995C50.8695 44.512 51.1642 44.6296 51.4701 44.6269C51.776 44.6243 52.0686 44.5016 52.2849 44.2853C52.5012 44.069 52.6239 43.7764 52.6266 43.4705C52.6292 43.1646 52.5117 42.8699 52.2991 42.6498L48.0385 38.3892C49.1911 36.9269 49.9088 35.1696 50.1094 33.3185C50.31 31.4674 49.9854 29.5972 49.1727 27.9219C48.3601 26.2467 47.0922 24.8341 45.5142 23.8458C43.9361 22.8575 42.1118 22.3334 40.2498 22.3335ZM32.6665 32.2502C32.6665 30.2389 33.4654 28.3101 34.8876 26.8879C36.3097 25.4658 38.2386 24.6668 40.2498 24.6668C42.261 24.6668 44.1899 25.4658 45.612 26.8879C47.0342 28.3101 47.8331 30.2389 47.8331 32.2502C47.8331 34.2614 47.0342 36.1902 45.612 37.6124C44.1899 39.0345 42.261 39.8335 40.2498 39.8335C38.2386 39.8335 36.3097 39.0345 34.8876 37.6124C33.4654 36.1902 32.6665 34.2614 32.6665 32.2502Z" fill="black"/>
</g>
<defs>
<clipPath id="clip0_2403_17016">
<rect width="28" height="28" fill="white" transform="translate(28 20)"/>
</clipPath>
</defs>
</svg>
