<svg width="28" height="28" viewBox="0 0 28 28" fill="none" xmlns="http://www.w3.org/2000/svg">
<path fill-rule="evenodd" clip-rule="evenodd" d="M12.2498 2.3335C10.6685 2.33363 9.11015 2.71192 7.70477 3.43681C6.2994 4.16169 5.08775 5.21215 4.17092 6.50054C3.25408 7.78893 2.65865 9.2779 2.4343 10.8432C2.20995 12.4085 2.36318 14.0048 2.88122 15.4988C3.39925 16.9929 4.26706 18.3414 5.41225 19.4318C6.55744 20.5223 7.9468 21.3231 9.46441 21.7674C10.982 22.2117 12.5839 22.2866 14.1363 21.9859C15.6888 21.6852 17.1468 21.0176 18.3888 20.0388L22.6495 24.2995C22.8695 24.512 23.1642 24.6296 23.4701 24.6269C23.776 24.6243 24.0686 24.5016 24.2849 24.2853C24.5012 24.069 24.6239 23.7764 24.6266 23.4705C24.6292 23.1646 24.5117 22.8699 24.2991 22.6498L20.0385 18.3892C21.1911 16.9269 21.9088 15.1696 22.1094 13.3185C22.31 11.4674 21.9854 9.59719 21.1727 7.92194C20.3601 6.24669 19.0922 4.83408 17.5142 3.84577C15.9361 2.85745 14.1118 2.33337 12.2498 2.3335ZM4.66647 12.2502C4.66647 10.2389 5.46543 8.31009 6.88758 6.88794C8.30973 5.46579 10.2386 4.66683 12.2498 4.66683C14.261 4.66683 16.1899 5.46579 17.612 6.88794C19.0342 8.31009 19.8331 10.2389 19.8331 12.2502C19.8331 14.2614 19.0342 16.1902 17.612 17.6124C16.1899 19.0345 14.261 19.8335 12.2498 19.8335C10.2386 19.8335 8.30973 19.0345 6.88758 17.6124C5.46543 16.1902 4.66647 14.2614 4.66647 12.2502Z" fill="black"/>
</svg>
