<svg width="32" height="32" viewBox="0 0 32 32" fill="none" xmlns="http://www.w3.org/2000/svg">
<path d="M21.4268 6.66634L19.5501 8.55967L17.4487 6.43967V21.333H14.8319V6.43967L12.7305 8.55967L10.8539 6.66634L16.1403 1.33301L21.4268 6.66634ZM26.7133 13.333V27.9997C26.7133 29.4663 25.5238 30.6663 24.07 30.6663H8.21062C7.50959 30.6663 6.83727 30.3854 6.34157 29.8853C5.84587 29.3852 5.56738 28.7069 5.56738 27.9997V13.333C5.56738 11.853 6.74362 10.6663 8.21062 10.6663H12.1755V13.333H8.21062V27.9997H24.07V13.333H20.1052V10.6663H24.07C24.771 10.6663 25.4434 10.9473 25.9391 11.4474C26.4348 11.9475 26.7133 12.6258 26.7133 13.333Z" fill="#F8F7F4"/>
</svg>
