<svg width="18" height="20" viewBox="0 0 18 20" fill="none" xmlns="http://www.w3.org/2000/svg">
    <path d="M4.45197 19.0728C4.26858 19.0728 4.08647 19.0068 3.93105 18.8771C3.64154 18.6349 3.5063 18.2187 3.58509 17.817L4.66192 12.3423L1.01001 8.64593C0.741573 8.37546 0.639024 7.94712 0.749235 7.5552C0.859446 7.16401 1.1593 6.88706 1.51433 6.84918L6.34624 6.34287L8.25661 1.18301C8.39747 0.803906 8.71827 0.559082 9.0747 0.559082C9.43113 0.559082 9.75193 0.803906 9.89279 1.18212L11.8032 6.34287L16.6343 6.84918C16.9901 6.88617 17.2899 7.16401 17.4002 7.5552C17.5104 7.94639 17.4085 8.37546 17.14 8.64593L13.4881 12.3416L14.5649 17.8161C14.6439 18.2187 14.5085 18.6349 14.2191 18.8763C13.9304 19.1178 13.5453 19.1363 13.2413 18.9254L9.0747 16.0517L4.90814 18.927C4.76727 19.0236 4.61032 19.0728 4.45197 19.0728Z" fill="#DDDDDD"/>
    </svg>
    