<svg width="18" height="20" viewBox="0 0 18 20" fill="none" xmlns="http://www.w3.org/2000/svg">
    <path d="M4.71063 19.0728C4.52725 19.0728 4.34514 19.0068 4.18972 18.8771C3.90021 18.6349 3.76496 18.2187 3.84376 17.817L4.92058 12.3423L1.26868 8.64593C1.00024 8.37546 0.897691 7.94712 1.0079 7.5552C1.11811 7.16401 1.41797 6.88706 1.77299 6.84918L6.60491 6.34287L8.51527 1.18301C8.65614 0.803906 8.97693 0.559082 9.33336 0.559082C9.68979 0.559082 10.0106 0.803906 10.1515 1.18212L12.0618 6.34287L16.893 6.84918C17.2488 6.88617 17.5486 7.16401 17.6588 7.5552C17.769 7.94639 17.6671 8.37546 17.3987 8.64593L13.7468 12.3416L14.8236 17.8161C14.9025 18.2187 14.7672 18.6349 14.4778 18.8763C14.189 19.1178 13.804 19.1363 13.4999 18.9254L9.33336 16.0517L5.1668 18.927C5.02594 19.0236 4.86899 19.0728 4.71063 19.0728Z" fill="#F6AB24"/>
    </svg>
    