<svg width="18" height="19" viewBox="0 0 18 19" fill="none" xmlns="http://www.w3.org/2000/svg">
<path d="M9 0.5C4.04 0.5 0 4.54 0 9.5C0 14.46 4.04 18.5 9 18.5C13.96 18.5 18 14.46 18 9.5C18 4.54 13.96 0.5 9 0.5ZM5.25 16.85V16.25C5.25 14.18 6.93 12.5 9 12.5C11.07 12.5 12.75 14.18 12.75 16.25V16.85C11.62 17.43 10.35 17.75 9 17.75C7.65 17.75 6.38 17.42 5.25 16.85ZM13.5 16.41V16.25C13.5 13.77 11.48 11.75 9 11.75C6.52 11.75 4.5 13.77 4.5 16.25V16.41C2.24 14.94 0.75 12.39 0.75 9.5C0.75 4.95 4.45 1.25 9 1.25C13.55 1.25 17.25 4.95 17.25 9.5C17.25 12.39 15.76 14.94 13.5 16.41ZM9 4.25C7.35 4.25 6 5.6 6 7.25C6 8.9 7.35 10.25 9 10.25C10.65 10.25 12 8.9 12 7.25C12 5.6 10.65 4.25 9 4.25ZM9 9.5C7.76 9.5 6.75 8.49 6.75 7.25C6.75 6.01 7.76 5 9 5C10.24 5 11.25 6.01 11.25 7.25C11.25 8.49 10.24 9.5 9 9.5Z" fill="#16EBD3"/>
</svg>
