<svg width="20" height="21" viewBox="0 0 20 21" fill="none" xmlns="http://www.w3.org/2000/svg">
    <path d="M14.36 12.0952C14.44 11.4352 14.5 10.7752 14.5 10.0952C14.5 9.41521 14.44 8.75521 14.36 8.09521H17.74C17.9 8.73522 18 9.40522 18 10.0952C18 10.7852 17.9 11.4552 17.74 12.0952M12.59 17.6552C13.19 16.5452 13.65 15.3452 13.97 14.0952H16.92C15.9512 15.7635 14.4141 17.0272 12.59 17.6552ZM12.34 12.0952H7.66C7.56 11.4352 7.5 10.7752 7.5 10.0952C7.5 9.41521 7.56 8.74521 7.66 8.09521H12.34C12.43 8.74521 12.5 9.41521 12.5 10.0952C12.5 10.7752 12.43 11.4352 12.34 12.0952ZM10 18.0552C9.17 16.8552 8.5 15.5252 8.09 14.0952H11.91C11.5 15.5252 10.83 16.8552 10 18.0552ZM6 6.09521H3.08C4.03864 4.42225 5.57466 3.15646 7.4 2.53521C6.8 3.64522 6.35 4.84521 6 6.09521ZM3.08 14.0952H6C6.35 15.3452 6.8 16.5452 7.4 17.6552C5.57827 17.0275 4.04429 15.7634 3.08 14.0952ZM2.26 12.0952C2.1 11.4552 2 10.7852 2 10.0952C2 9.40522 2.1 8.73522 2.26 8.09521H5.64C5.56 8.75521 5.5 9.41521 5.5 10.0952C5.5 10.7752 5.56 11.4352 5.64 12.0952M10 2.12522C10.83 3.32522 11.5 4.66522 11.91 6.09521H8.09C8.5 4.66522 9.17 3.32522 10 2.12522ZM16.92 6.09521H13.97C13.6565 4.85682 13.1931 3.66132 12.59 2.53521C14.43 3.16522 15.96 4.43521 16.92 6.09521ZM10 0.0952148C4.47 0.0952148 0 4.59521 0 10.0952C0 12.7474 1.05357 15.2909 2.92893 17.1663C3.85752 18.0949 4.95991 18.8315 6.17317 19.334C7.38642 19.8366 8.68678 20.0952 10 20.0952C12.6522 20.0952 15.1957 19.0416 17.0711 17.1663C18.9464 15.2909 20 12.7474 20 10.0952C20 8.782 19.7413 7.48164 19.2388 6.26838C18.7362 5.05512 17.9997 3.95273 17.0711 3.02415C16.1425 2.09556 15.0401 1.35897 13.8268 0.85642C12.6136 0.353873 11.3132 0.0952148 10 0.0952148Z" fill="#F8F7F4"/>
    </svg>
    