<svg width="24" height="17" viewBox="0 0 24 17" fill="none" xmlns="http://www.w3.org/2000/svg">
    <path d="M23.4529 3.03862C23.3188 2.5439 23.0575 2.09289 22.6951 1.73044C22.3326 1.36799 21.8816 1.10673 21.3869 0.972622C19.5519 0.48877 12.2155 0.48877 12.2155 0.48877C12.2155 0.48877 4.87898 0.48877 3.04403 0.972622C2.03949 1.24217 1.24925 2.03408 0.978027 3.03862C0.49585 4.8719 0.49585 8.67575 0.49585 8.67575C0.49585 8.67575 0.49585 12.498 0.978027 14.3129C1.24925 15.3174 2.04116 16.1093 3.04403 16.3789C4.87898 16.8627 12.2155 16.8627 12.2155 16.8627C12.2155 16.8627 19.5519 16.8627 21.3869 16.3789C21.8816 16.2448 22.3326 15.9835 22.6951 15.6211C23.0575 15.2586 23.3188 14.8076 23.4529 14.3129C23.9351 12.4796 23.9351 8.67575 23.9351 8.67575C23.9351 8.67575 23.9351 4.8719 23.4529 3.03862Z" fill="#FF0000"/>
    <path d="M9.85938 12.2078L15.9603 8.69522L9.85938 5.1626V12.2078Z" fill="white"/>
    </svg>
    