<svg width="18" height="25" viewBox="0 0 18 25" fill="none" xmlns="http://www.w3.org/2000/svg">
    <path fill-rule="evenodd" clip-rule="evenodd" d="M15.75 9.09545C15.7531 10.5418 15.2885 11.9503 14.4255 13.1109L9 20.3454L3.5745 13.1109C2.93926 12.2527 2.51668 11.256 2.34148 10.2027C2.16629 9.14943 2.24346 8.06961 2.56667 7.05194C2.88988 6.03428 3.44991 5.10781 4.20075 4.34863C4.95159 3.58945 5.87182 3.01923 6.88585 2.6848C7.89988 2.35037 8.97879 2.26127 10.0339 2.42483C11.0891 2.58839 12.0904 2.99993 12.9556 3.62565C13.8208 4.25138 14.5252 5.07343 15.011 6.02429C15.4968 6.97515 15.75 8.02769 15.75 9.09545ZM18 9.09545C18 11.1054 17.3415 12.9594 16.23 14.4564L10.4055 22.2204L9 24.0954L7.593 22.2204L1.77 14.4564C0.922029 13.3126 0.357563 11.9838 0.122979 10.5794C-0.111604 9.17497 -0.00960915 7.73492 0.420584 6.37756C0.850777 5.02021 1.59689 3.7843 2.59762 2.77137C3.59835 1.75845 4.82514 0.997422 6.17718 0.550822C7.52923 0.104223 8.96794 -0.0152041 10.3751 0.202354C11.7823 0.419912 13.1178 0.968246 14.2718 1.8023C15.4259 2.63636 16.3655 3.73234 17.0137 5.00018C17.6618 6.26802 17.9998 7.67155 18 9.09545ZM9 12.0954C9.79565 12.0954 10.5587 11.7794 11.1213 11.2168C11.6839 10.6542 12 9.8911 12 9.09545C12 8.2998 11.6839 7.53674 11.1213 6.97413C10.5587 6.41152 9.79565 6.09545 9 6.09545C8.20435 6.09545 7.44129 6.41152 6.87868 6.97413C6.31607 7.53674 6 8.2998 6 9.09545C6 9.8911 6.31607 10.6542 6.87868 11.2168C7.44129 11.7794 8.20435 12.0954 9 12.0954Z" fill="#F8F7F4"/>
    </svg>
    