<svg width="16" height="12" viewBox="0 0 16 12" fill="none" xmlns="http://www.w3.org/2000/svg">
<path fill-rule="evenodd" clip-rule="evenodd" d="M2.21985 0.72C2.36047 0.57955 2.5511 0.50066 2.74985 0.50066C2.9486 0.50066 3.13922 0.57955 3.27985 0.72L5.27985 2.72C5.41233 2.86217 5.48445 3.05022 5.48102 3.24452C5.47759 3.43882 5.39888 3.62421 5.26147 3.76162C5.12406 3.89903 4.93867 3.97775 4.74437 3.98117C4.55007 3.9846 4.36202 3.91248 4.21985 3.78L3.49985 3.06V10.75C3.49985 10.9489 3.42083 11.1397 3.28018 11.2803C3.13952 11.421 2.94876 11.5 2.74985 11.5C2.55093 11.5 2.36017 11.421 2.21952 11.2803C2.07886 11.1397 1.99985 10.9489 1.99985 10.75V3.06L1.27985 3.78C1.13767 3.91248 0.949625 3.9846 0.755324 3.98117C0.561023 3.97775 0.375638 3.89903 0.238225 3.76162C0.100812 3.62421 0.0220998 3.43882 0.0186715 3.24452C0.0152433 3.05022 0.0873665 2.86217 0.219847 2.72L2.21985 0.72ZM6.99985 10.75C6.99985 11.164 7.33585 11.5 7.74985 11.5H15.2498C15.4488 11.5 15.6395 11.421 15.7802 11.2803C15.9208 11.1397 15.9998 10.9489 15.9998 10.75C15.9998 10.5511 15.9208 10.3603 15.7802 10.2197C15.6395 10.079 15.4488 10 15.2498 10H7.74985C7.55093 10 7.36017 10.079 7.21952 10.2197C7.07886 10.3603 6.99985 10.5511 6.99985 10.75ZM7.74985 6.75C7.55093 6.75 7.36017 6.67098 7.21952 6.53033C7.07886 6.38968 6.99985 6.19891 6.99985 6C6.99985 5.80109 7.07886 5.61032 7.21952 5.46967C7.36017 5.32902 7.55093 5.25 7.74985 5.25H13.2498C13.4488 5.25 13.6395 5.32902 13.7802 5.46967C13.9208 5.61032 13.9998 5.80109 13.9998 6C13.9998 6.19891 13.9208 6.38968 13.7802 6.53033C13.6395 6.67098 13.4488 6.75 13.2498 6.75H7.74985ZM7.74985 2C7.55093 2 7.36017 1.92098 7.21952 1.78033C7.07886 1.63968 6.99985 1.44891 6.99985 1.25C6.99985 1.05109 7.07886 0.860322 7.21952 0.71967C7.36017 0.579018 7.55093 0.5 7.74985 0.5H10.2498C10.4488 0.5 10.6395 0.579018 10.7802 0.71967C10.9208 0.860322 10.9998 1.05109 10.9998 1.25C10.9998 1.44891 10.9208 1.63968 10.7802 1.78033C10.6395 1.92098 10.4488 2 10.2498 2H7.74985Z" fill="#F8F7F4"/>
</svg>
