<svg width="33" height="32" viewBox="0 0 33 32" fill="none" xmlns="http://www.w3.org/2000/svg">
<path fill-rule="evenodd" clip-rule="evenodd" d="M29.1065 7.22134C29.2332 7.41361 29.2897 7.64372 29.2663 7.87279C29.243 8.10186 29.1414 8.31587 28.9785 8.47867L16.7212 20.7347C16.5958 20.86 16.4393 20.9497 16.2679 20.9947L11.1625 22.328C10.9938 22.372 10.8164 22.3711 10.6481 22.3254C10.4798 22.2797 10.3264 22.1908 10.203 22.0675C10.0797 21.9442 9.9908 21.7907 9.9451 21.6224C9.8994 21.4541 9.89851 21.2768 9.94253 21.108L11.2759 16.004C11.3148 15.8508 11.3882 15.7085 11.4905 15.588L23.7932 3.29334C23.9807 3.10607 24.2349 3.00089 24.4999 3.00089C24.7649 3.00089 25.019 3.10607 25.2065 3.29334L28.9785 7.064C29.0264 7.11201 29.0693 7.16472 29.1065 7.22134ZM26.8572 7.77067L24.4999 5.41467L13.1425 16.772L12.3092 19.9627L15.4999 19.1293L26.8572 7.77067Z" fill="white"/>
<path d="M26.6884 22.88C27.0528 19.7653 27.1692 16.6265 27.0364 13.4933C27.0335 13.4195 27.0459 13.3459 27.0727 13.2771C27.0996 13.2083 27.1403 13.1457 27.1924 13.0933L28.5044 11.7813C28.5403 11.7453 28.5858 11.7204 28.6354 11.7095C28.6851 11.6987 28.7369 11.7025 28.7845 11.7204C28.8321 11.7382 28.8735 11.7695 28.9037 11.8103C28.934 11.8512 28.9518 11.8999 28.9551 11.9507C29.202 15.6723 29.1083 19.4088 28.6751 23.1133C28.3604 25.8093 26.1951 27.9227 23.5111 28.2227C18.8515 28.7387 14.1493 28.7387 9.48973 28.2227C6.80707 27.9227 4.6404 25.8093 4.32573 23.1133C3.77293 18.3872 3.77293 13.6128 4.32573 8.88667C4.6404 6.19067 6.80573 4.07734 9.48973 3.77734C13.0262 3.38518 16.5894 3.29018 20.1417 3.49334C20.1926 3.49699 20.2413 3.51513 20.2821 3.54562C20.323 3.57611 20.3542 3.61767 20.3722 3.66537C20.3902 3.71307 20.3941 3.76492 20.3835 3.81477C20.3729 3.86463 20.3482 3.9104 20.3124 3.94667L18.9884 5.26934C18.9365 5.321 18.8747 5.3615 18.8065 5.38833C18.7384 5.41516 18.6656 5.42776 18.5924 5.42534C15.6281 5.32457 12.6603 5.4382 9.7124 5.76534C8.85099 5.86068 8.04687 6.24364 7.42994 6.85234C6.81301 7.46105 6.4193 8.25995 6.3124 9.12001C5.7778 13.6911 5.7778 18.3089 6.3124 22.88C6.4193 23.7401 6.81301 24.539 7.42994 25.1477C8.04687 25.7564 8.85099 26.1393 9.7124 26.2347C14.1857 26.7347 18.8151 26.7347 23.2897 26.2347C24.1511 26.1393 24.9553 25.7564 25.5722 25.1477C26.1891 24.539 26.5815 23.7401 26.6884 22.88Z" fill="white"/>
</svg>
