<svg width="19" height="18" viewBox="0 0 19 18" fill="none" xmlns="http://www.w3.org/2000/svg">
<path d="M12.9705 2.84399L15.8225 5.69599M5.6665 4.99999H2.6665C2.40129 4.99999 2.14693 5.10535 1.9594 5.29289C1.77186 5.48042 1.6665 5.73478 1.6665 5.99999V16C1.6665 16.2652 1.77186 16.5196 1.9594 16.7071C2.14693 16.8946 2.40129 17 2.6665 17H13.6665C13.9317 17 14.1861 16.8946 14.3736 16.7071C14.5611 16.5196 14.6665 16.2652 14.6665 16V11.5M17.0755 1.58999C17.2629 1.7773 17.4115 1.99969 17.5129 2.24445C17.6143 2.48921 17.6665 2.75156 17.6665 3.01649C17.6665 3.28143 17.6143 3.54378 17.5129 3.78854C17.4115 4.0333 17.2629 4.25569 17.0755 4.44299L10.2315 11.287L6.6665 12L7.3795 8.43499L14.2235 1.59099C14.4107 1.40353 14.6329 1.25481 14.8776 1.15334C15.1223 1.05186 15.3846 0.999634 15.6495 0.999634C15.9144 0.999634 16.1767 1.05186 16.4214 1.15334C16.6661 1.25481 16.8884 1.40353 17.0755 1.59099V1.58999Z" stroke="#F8F7F4" stroke-width="2" stroke-linecap="round" stroke-linejoin="round"/>
</svg>
