<svg width="20" height="20" viewBox="0 0 20 20" fill="none" xmlns="http://www.w3.org/2000/svg">
    <path d="M15.0867 0H4.11456C1.84215 0 0 1.84215 0 4.11456V15.0867C0 17.3591 1.84215 19.2013 4.11456 19.2013H15.0867C17.3591 19.2013 19.2013 17.3591 19.2013 15.0867V4.11456C19.2013 1.84215 17.3591 0 15.0867 0Z" fill="url(#paint0_radial_1868_128)"/>
    <path d="M15.0867 0H4.11456C1.84215 0 0 1.84215 0 4.11456V15.0867C0 17.3591 1.84215 19.2013 4.11456 19.2013H15.0867C17.3591 19.2013 19.2013 17.3591 19.2013 15.0867V4.11456C19.2013 1.84215 17.3591 0 15.0867 0Z" fill="url(#paint1_radial_1868_128)"/>
    <path d="M15.0867 0H4.11456C1.84215 0 0 1.84215 0 4.11456V15.0867C0 17.3591 1.84215 19.2013 4.11456 19.2013H15.0867C17.3591 19.2013 19.2013 17.3591 19.2013 15.0867V4.11456C19.2013 1.84215 17.3591 0 15.0867 0Z" fill="url(#paint2_radial_1868_128)"/>
    <path d="M14.4018 5.82698C14.4018 6.39506 13.9412 6.85562 13.3731 6.85562C12.805 6.85562 12.3445 6.39506 12.3445 5.82698C12.3445 5.25888 12.805 4.79834 13.3731 4.79834C13.9412 4.79834 14.4018 5.25888 14.4018 5.82698Z" fill="white"/>
    <path fill-rule="evenodd" clip-rule="evenodd" d="M9.60068 13.0295C11.4943 13.0295 13.0295 11.4943 13.0295 9.60068C13.0295 7.70702 11.4943 6.17188 9.60068 6.17188C7.70702 6.17188 6.17188 7.70702 6.17188 9.60068C6.17188 11.4943 7.70702 13.0295 9.60068 13.0295ZM9.60068 11.658C10.7369 11.658 11.658 10.7369 11.658 9.60068C11.658 8.46444 10.7369 7.5434 9.60068 7.5434C8.46444 7.5434 7.5434 8.46444 7.5434 9.60068C7.5434 10.7369 8.46444 11.658 9.60068 11.658Z" fill="white"/>
    <path fill-rule="evenodd" clip-rule="evenodd" d="M2.74292 9.32549C2.74292 7.02113 2.74292 5.86891 3.19138 4.98878C3.58586 4.21457 4.2153 3.58512 4.98951 3.19065C5.86964 2.74219 7.02186 2.74219 9.32622 2.74219H9.87483C12.1792 2.74219 13.3314 2.74219 14.2115 3.19065C14.9857 3.58512 15.6152 4.21457 16.0096 4.98878C16.4581 5.86891 16.4581 7.02113 16.4581 9.32549V9.87409C16.4581 12.1785 16.4581 13.3307 16.0096 14.2108C15.6152 14.985 14.9857 15.6145 14.2115 16.0089C13.3314 16.4574 12.1792 16.4574 9.87483 16.4574H9.32622C7.02186 16.4574 5.86964 16.4574 4.98951 16.0089C4.2153 15.6145 3.58586 14.985 3.19138 14.2108C2.74292 13.3307 2.74292 12.1785 2.74292 9.87409V9.32549ZM9.32622 4.11371H9.87483C11.0497 4.11371 11.8482 4.11478 12.4656 4.16521C13.0669 4.21434 13.3744 4.30338 13.5889 4.41268C14.105 4.67567 14.5246 5.0953 14.7876 5.61141C14.8969 5.82591 14.986 6.13341 15.0351 6.73475C15.0855 7.35207 15.0866 8.15064 15.0866 9.32549V9.87409C15.0866 11.0489 15.0855 11.8475 15.0351 12.4648C14.986 13.0662 14.8969 13.3737 14.7876 13.5882C14.5246 14.1043 14.105 14.5239 13.5889 14.7869C13.3744 14.8962 13.0669 14.9853 12.4656 15.0344C11.8482 15.0848 11.0497 15.0859 9.87483 15.0859H9.32622C8.15137 15.0859 7.35281 15.0848 6.73548 15.0344C6.13414 14.9853 5.82665 14.8962 5.61214 14.7869C5.09603 14.5239 4.6764 14.1043 4.41341 13.5882C4.30412 13.3737 4.21507 13.0662 4.16594 12.4648C4.11551 11.8475 4.11444 11.0489 4.11444 9.87409V9.32549C4.11444 8.15064 4.11551 7.35207 4.16594 6.73475C4.21507 6.13341 4.30412 5.82591 4.41341 5.61141C4.6764 5.0953 5.09603 4.67567 5.61214 4.41268C5.82665 4.30338 6.13414 4.21434 6.73548 4.16521C7.35281 4.11478 8.15137 4.11371 9.32622 4.11371Z" fill="white"/>
    <defs>
    <radialGradient id="paint0_radial_1868_128" cx="0" cy="0" r="1" gradientUnits="userSpaceOnUse" gradientTransform="translate(6.8576 14.401) rotate(-55.3758) scale(17.5003)">
    <stop stop-color="#B13589"/>
    <stop offset="0.79309" stop-color="#C62F94"/>
    <stop offset="1" stop-color="#8A3AC8"/>
    </radialGradient>
    <radialGradient id="paint1_radial_1868_128" cx="0" cy="0" r="1" gradientUnits="userSpaceOnUse" gradientTransform="translate(6.17184 19.887) rotate(-65.1363) scale(15.4942)">
    <stop stop-color="#E0E8B7"/>
    <stop offset="0.444662" stop-color="#FB8A2E"/>
    <stop offset="0.71474" stop-color="#E2425C"/>
    <stop offset="1" stop-color="#E2425C" stop-opacity="0"/>
    </radialGradient>
    <radialGradient id="paint2_radial_1868_128" cx="0" cy="0" r="1" gradientUnits="userSpaceOnUse" gradientTransform="translate(-1.02864 0.68576) rotate(-8.1301) scale(26.6698 5.7044)">
    <stop offset="0.156701" stop-color="#406ADC"/>
    <stop offset="0.467799" stop-color="#6A45BE"/>
    <stop offset="1" stop-color="#6A45BE" stop-opacity="0"/>
    </radialGradient>
    </defs>
    </svg>
    