<svg width="71" height="70" viewBox="0 0 71 70" fill="none" xmlns="http://www.w3.org/2000/svg">
    <circle cx="35.5" cy="35" r="35" fill="#F8F7F4"/>
    <g clip-path="url(#clip0_1928_138)">
    <path fill-rule="evenodd" clip-rule="evenodd" d="M33.6253 16.2986C34.3981 16.0095 35.2424 15.9718 36.0379 16.1909L36.3748 16.2986L50.0831 21.4393C50.7782 21.6999 51.3848 22.1527 51.8325 22.7449C52.2801 23.3371 52.5502 24.0443 52.6113 24.7841L52.625 25.1072V35.6098C52.6249 38.7831 51.7681 41.8975 50.145 44.6244C48.5219 47.3512 46.1926 49.5892 43.4032 51.1021L42.8823 51.3744L36.314 54.6585C35.9524 54.8391 35.5574 54.943 35.1537 54.9639C34.75 54.9848 34.3463 54.9222 33.968 54.7799L33.686 54.6585L27.1177 51.3744C24.2793 49.9551 21.8768 47.7959 20.1637 45.1246C18.4506 42.4532 17.4905 39.3689 17.3848 36.1973L17.375 35.6098V25.1072C17.375 24.3653 17.5858 23.6386 17.9827 23.0118C18.3797 22.3849 18.9466 21.8838 19.6173 21.5666L19.9169 21.4393L33.6253 16.2986ZM41.723 28.8986L32.7185 37.903L29.2562 34.4406C28.8887 34.0734 28.3905 33.8673 27.871 33.8674C27.3515 33.8676 26.8533 34.0742 26.4861 34.4416C26.1189 34.8091 25.9128 35.3074 25.9129 35.8269C25.9131 36.3463 26.1197 36.8445 26.4871 37.2117L31.195 41.9195C31.395 42.1197 31.6325 42.2784 31.8939 42.3867C32.1554 42.4951 32.4356 42.5508 32.7185 42.5508C33.0015 42.5508 33.2817 42.4951 33.5431 42.3867C33.8046 42.2784 34.0421 42.1197 34.2421 41.9195L44.492 31.6676C44.6791 31.487 44.8283 31.2709 44.9309 31.032C45.0335 30.7931 45.0876 30.5361 45.0898 30.2761C45.0921 30.016 45.0425 29.7582 44.9441 29.5175C44.8456 29.2768 44.7002 29.0582 44.5163 28.8743C44.3324 28.6904 44.1138 28.545 43.8731 28.4465C43.6324 28.3481 43.3746 28.2985 43.1145 28.3008C42.8545 28.303 42.5975 28.3571 42.3586 28.4597C42.1197 28.5623 41.9036 28.7115 41.723 28.8986Z" fill="url(#paint0_radial_1928_138)"/>
    </g>
    <defs>
    <radialGradient id="paint0_radial_1928_138" cx="0" cy="0" r="1" gradientUnits="userSpaceOnUse" gradientTransform="translate(22.5588 21.1711) rotate(50.3665) scale(43.8843 39.3576)">
    <stop stop-color="#D7C7A4"/>
    <stop offset="0.995" stop-color="#FFE340"/>
    </radialGradient>
    <clipPath id="clip0_1928_138">
    <rect width="47" height="47" fill="white" transform="translate(11.5 12)"/>
    </clipPath>
    </defs>
    </svg>
    