<svg width="16" height="16" viewBox="0 0 16 16" fill="none" xmlns="http://www.w3.org/2000/svg">
<path d="M3.33329 4.0598V12.0598L2.47329 11.1931C2.34776 11.0676 2.1775 10.9971 1.99996 10.9971C1.82243 10.9971 1.65216 11.0676 1.52663 11.1931C1.40109 11.3187 1.33057 11.4889 1.33057 11.6665C1.33057 11.844 1.40109 12.0143 1.52663 12.1398L3.52663 14.1398C3.5886 14.2023 3.66234 14.2519 3.74358 14.2857C3.82482 14.3196 3.91195 14.337 3.99996 14.337C4.08797 14.337 4.17511 14.3196 4.25635 14.2857C4.33758 14.2519 4.41132 14.2023 4.47329 14.1398L6.47329 12.1398C6.53578 12.0778 6.58538 12.0041 6.61922 11.9228C6.65307 11.8416 6.67049 11.7545 6.67049 11.6665C6.67049 11.5785 6.65307 11.4913 6.61922 11.4101C6.58538 11.3288 6.53578 11.2551 6.47329 11.1931C6.41132 11.1306 6.33758 11.081 6.25635 11.0472C6.17511 11.0134 6.08797 10.9959 5.99996 10.9959C5.91195 10.9959 5.82482 11.0134 5.74358 11.0472C5.66234 11.081 5.5886 11.1306 5.52663 11.1931L4.66663 12.0598V4.0598C4.66398 3.92322 4.68826 3.78745 4.73809 3.66025C4.78792 3.53306 4.86232 3.41693 4.95704 3.31849C5.05176 3.22006 5.16494 3.14125 5.29013 3.08656C5.41531 3.03188 5.55005 3.0024 5.68663 2.9998H7.33329C7.51011 2.9998 7.67967 2.92956 7.8047 2.80453C7.92972 2.67951 7.99996 2.50994 7.99996 2.33313C7.99996 2.15632 7.92972 1.98675 7.8047 1.86173C7.67967 1.7367 7.51011 1.66646 7.33329 1.66646H5.68663C5.37495 1.66908 5.06685 1.73306 4.7799 1.85475C4.49296 1.97645 4.23279 2.15347 4.01426 2.37571C3.79573 2.59796 3.62312 2.86107 3.50628 3.15003C3.38944 3.43898 3.33066 3.74812 3.33329 4.0598ZM9.52663 3.8598C9.40109 3.98533 9.33057 4.1556 9.33057 4.33313C9.33057 4.51066 9.40109 4.68093 9.52663 4.80646C9.65216 4.932 9.82243 5.00252 9.99996 5.00252C10.1775 5.00252 10.3478 4.932 10.4733 4.80646L11.3333 3.9398V11.9398C11.3359 12.0764 11.3117 12.2121 11.2618 12.3393C11.212 12.4665 11.1376 12.5827 11.0429 12.6811C10.9482 12.7795 10.835 12.8583 10.7098 12.913C10.5846 12.9677 10.4499 12.9972 10.3133 12.9998H8.66663C8.48982 12.9998 8.32025 13.07 8.19522 13.1951C8.0702 13.3201 7.99996 13.4897 7.99996 13.6665C7.99996 13.8433 8.0702 14.0128 8.19522 14.1379C8.32025 14.2629 8.48982 14.3331 8.66663 14.3331H10.3133C10.625 14.3305 10.9331 14.2665 11.22 14.1448C11.507 14.0231 11.7671 13.8461 11.9857 13.6239C12.2042 13.4016 12.3768 13.1385 12.4936 12.8496C12.6105 12.5606 12.6693 12.2515 12.6666 11.9398V3.9398L13.5266 4.80646C13.5886 4.86895 13.6623 4.91854 13.7436 4.95239C13.8248 4.98624 13.912 5.00366 14 5.00366C14.088 5.00366 14.1751 4.98624 14.2563 4.95239C14.3376 4.91854 14.4113 4.86895 14.4733 4.80646C14.5358 4.74449 14.5854 4.67075 14.6192 4.58951C14.6531 4.50827 14.6705 4.42114 14.6705 4.33313C14.6705 4.24512 14.6531 4.15798 14.6192 4.07675C14.5854 3.99551 14.5358 3.92177 14.4733 3.8598L12.4733 1.8598C12.4113 1.79731 12.3376 1.74771 12.2563 1.71387C12.1751 1.68002 12.088 1.6626 12 1.6626C11.912 1.6626 11.8248 1.68002 11.7436 1.71387C11.6623 1.74771 11.5886 1.79731 11.5266 1.8598L9.52663 3.8598Z" fill="#F8F7F4"/>
</svg>
