<svg width="24" height="25" viewBox="0 0 24 25" fill="none" xmlns="http://www.w3.org/2000/svg">
    <path fill-rule="evenodd" clip-rule="evenodd" d="M3.01 5.93311C3.01 5.66789 3.11536 5.41354 3.30289 5.226C3.49043 5.03846 3.74478 4.93311 4.01 4.93311H20C20.2652 4.93311 20.5196 5.03846 20.7071 5.226C20.8946 5.41354 21 5.66789 21 5.93311V17.2571C21 17.7875 20.7893 18.2962 20.4142 18.6713C20.0391 19.0464 19.5304 19.2571 19 19.2571H5C4.46957 19.2571 3.96086 19.0464 3.58579 18.6713C3.21071 18.2962 3 17.7875 3 17.2571V6.25711C3 6.20911 3.003 6.16311 3.01 6.11711V5.93311ZM5 8.15711V17.2571H19V8.15711L14.121 13.0361C13.5584 13.5985 12.7955 13.9145 12 13.9145C11.2045 13.9145 10.4416 13.5985 9.879 13.0361L5 8.15711ZM6.572 6.90111H17.428L12.708 11.6211C12.6151 11.7141 12.5048 11.7878 12.3834 11.8382C12.262 11.8885 12.1319 11.9144 12.0005 11.9144C11.8691 11.9144 11.739 11.8885 11.6176 11.8382C11.4962 11.7878 11.3859 11.7141 11.293 11.6211L6.572 6.90111Z" fill="#F8F7F4"/>
    </svg>
    