<svg width="48" height="49" viewBox="0 0 48 49" fill="none" xmlns="http://www.w3.org/2000/svg">
<path d="M24 0.597656C10.748 0.597656 0 11.3457 0 24.5977C0 37.8497 10.748 48.5977 24 48.5977C37.252 48.5977 48 37.8497 48 24.5977C48 11.3457 37.258 0.597656 24 0.597656ZM11.84 25.4037L11.942 25.2417L18.188 15.4737C18.2089 15.4415 18.2381 15.4156 18.2724 15.3987C18.3068 15.3817 18.3451 15.3742 18.3833 15.3771C18.4215 15.3799 18.4582 15.393 18.4897 15.4149C18.5211 15.4368 18.5461 15.4668 18.562 15.5017C19.602 17.8397 20.506 20.7477 20.082 22.5577C19.906 23.3017 19.412 24.3097 18.854 25.2417C18.7837 25.3787 18.7056 25.5116 18.62 25.6397C18.6006 25.6692 18.5738 25.6931 18.5421 25.7089C18.5105 25.7248 18.4753 25.7319 18.44 25.7297H12.026C11.9877 25.7302 11.95 25.7205 11.9168 25.7013C11.8836 25.6822 11.8563 25.6545 11.8376 25.621C11.819 25.5876 11.8097 25.5497 11.8108 25.5115C11.8119 25.4732 11.8234 25.4359 11.844 25.4037H11.84ZM39.668 28.7637C39.6682 28.8063 39.6561 28.8481 39.633 28.884C39.6099 28.9198 39.5769 28.9482 39.538 28.9657C39.052 29.1717 37.398 29.9357 36.71 30.8897C34.954 33.3337 33.614 36.8297 30.614 36.8297H18.106C17.05 36.8278 16.0047 36.618 15.0298 36.2121C14.0549 35.8062 13.1696 35.2123 12.4243 34.4642C11.6789 33.7161 11.0883 32.8285 10.6861 31.8521C10.2838 30.8757 10.0779 29.8297 10.08 28.7737V28.6297C10.08 28.5137 10.176 28.4177 10.296 28.4177H17.266C17.406 28.4177 17.506 28.5437 17.496 28.6817C17.444 29.1337 17.53 29.5997 17.746 30.0217C18.158 30.8617 19.018 31.3857 19.944 31.3857H23.396V28.6917H19.98C19.94 28.6912 19.9008 28.6799 19.8668 28.6589C19.8327 28.6378 19.805 28.6079 19.7867 28.5723C19.7684 28.5367 19.7601 28.4968 19.7628 28.4569C19.7655 28.4169 19.7791 28.3785 19.802 28.3457L19.928 28.1657C20.248 27.7037 20.71 26.9937 21.17 26.1817C21.482 25.6337 21.786 25.0497 22.03 24.4617C22.0753 24.355 22.1187 24.2483 22.16 24.1417C22.226 23.9537 22.294 23.7777 22.342 23.6037C22.3888 23.456 22.4321 23.3073 22.472 23.1577C22.586 22.6577 22.634 22.1297 22.634 21.5837C22.634 21.3677 22.626 21.1417 22.606 20.9297C22.596 20.6957 22.566 20.4597 22.538 20.2257C22.517 20.0161 22.4849 19.8078 22.442 19.6017C22.3873 19.2875 22.322 18.9753 22.246 18.6657L22.218 18.5457C22.158 18.3297 22.106 18.1257 22.038 17.9117C21.8471 17.2546 21.6283 16.606 21.382 15.9677C21.2964 15.7275 21.2017 15.4906 21.098 15.2577C20.954 14.9017 20.806 14.5797 20.672 14.2777C20.6058 14.1481 20.5431 14.0167 20.484 13.8837C20.4187 13.7401 20.35 13.598 20.278 13.4577C20.23 13.3517 20.172 13.2497 20.134 13.1537L19.712 12.3777C19.654 12.2717 19.75 12.1417 19.866 12.1757L22.506 12.8897H22.526L22.872 12.9897L23.256 13.0977L23.396 13.1357V11.5697C23.396 10.8117 24 10.1977 24.754 10.1977C24.932 10.1972 25.1083 10.2327 25.2723 10.3022C25.4362 10.3716 25.5844 10.4735 25.708 10.6017C25.9616 10.8604 26.1049 11.2074 26.108 11.5697V13.8977L26.39 13.9757C26.4113 13.985 26.432 13.9963 26.452 14.0097C26.5213 14.059 26.6193 14.1323 26.746 14.2297C26.8447 14.3083 26.9547 14.3997 27.076 14.5037C27.4714 14.8249 27.8543 15.1612 28.224 15.5117C28.652 15.9097 29.132 16.3757 29.592 16.8937C29.722 17.0417 29.846 17.1857 29.976 17.3457C30.1 17.5037 30.24 17.6577 30.356 17.8097C30.514 18.0177 30.676 18.2337 30.826 18.4577C30.892 18.5637 30.974 18.6737 31.036 18.7797C31.228 19.0637 31.392 19.3557 31.55 19.6497C31.618 19.7837 31.684 19.9317 31.742 20.0757C31.92 20.4697 32.06 20.8677 32.146 21.2717C32.1713 21.3582 32.1906 21.4464 32.204 21.5357V21.5557C32.232 21.6697 32.242 21.7957 32.252 21.9237C32.3056 22.5148 32.2334 23.1105 32.04 23.6717C31.978 23.8397 31.92 24.0117 31.844 24.1797C31.694 24.5197 31.522 24.8657 31.316 25.1837C31.248 25.3037 31.166 25.4277 31.09 25.5477C31.004 25.6737 30.912 25.7937 30.836 25.9077C30.7259 26.059 30.6105 26.2064 30.49 26.3497C30.386 26.4963 30.2753 26.6357 30.158 26.7677C29.998 26.9637 29.8347 27.149 29.668 27.3237C29.572 27.4397 29.468 27.5597 29.356 27.6637C29.252 27.7837 29.14 27.8897 29.044 27.9857C28.876 28.1537 28.744 28.2797 28.628 28.3897L28.354 28.6337C28.3352 28.6528 28.3128 28.668 28.2881 28.6783C28.2634 28.6886 28.2368 28.6938 28.21 28.6937H26.108V31.3857H28.752C29.342 31.3857 29.904 31.1777 30.36 30.7897C30.514 30.6557 31.19 30.0697 31.992 29.1857C32.0186 29.1562 32.0534 29.1353 32.092 29.1257L39.392 27.0117C39.424 27.0024 39.4578 27.0007 39.4906 27.0066C39.5235 27.0126 39.5545 27.0261 39.5812 27.0461C39.6079 27.066 39.6297 27.0919 39.6448 27.1217C39.6598 27.1514 39.6678 27.1843 39.668 27.2177V28.7637Z" fill="#2081E2"/>
</svg>
