<svg width="18" height="18" viewBox="0 0 18 18" fill="none" xmlns="http://www.w3.org/2000/svg">
    <path d="M9.67911 9.16411L3.40244 10.2099C3.33028 10.222 3.26256 10.2528 3.2061 10.2993C3.14963 10.3459 3.10641 10.4064 3.08078 10.4749L0.916611 16.2733C0.709945 16.8066 1.26744 17.3149 1.77911 17.0583L16.7791 9.55827C16.8828 9.50631 16.97 9.42653 17.0309 9.32785C17.0918 9.22917 17.1241 9.11549 17.1241 8.99952C17.1241 8.88356 17.0918 8.76987 17.0309 8.6712C16.97 8.57252 16.8828 8.49274 16.7791 8.44077L1.77911 0.940774C1.26744 0.68494 0.709945 1.19327 0.916611 1.72577L3.08161 7.52411C3.10724 7.59263 3.15047 7.6532 3.20693 7.69971C3.2634 7.74623 3.33112 7.77706 3.40328 7.78911L9.67994 8.83494C9.7191 8.84119 9.75474 8.86119 9.78047 8.89136C9.8062 8.92152 9.82034 8.95987 9.82034 8.99952C9.82034 9.03917 9.8062 9.07752 9.78047 9.10769C9.75474 9.13785 9.7191 9.15786 9.67994 9.16411" fill="url(#paint0_radial_1876_703)"/>
    <defs>
    <radialGradient id="paint0_radial_1876_703" cx="0" cy="0" r="1" gradientUnits="userSpaceOnUse" gradientTransform="translate(3.26238 3.0113) rotate(47.5639) scale(19.1261 17.3888)">
    <stop stop-color="#D7C7A4"/>
    <stop offset="0.995" stop-color="#FFE340"/>
    </radialGradient>
    </defs>
    </svg>
    