<svg width="22" height="22" viewBox="0 0 22 22" fill="none" xmlns="http://www.w3.org/2000/svg">
<g clip-path="url(#clip0_3450_8132)">
<path d="M20.5455 10.7128C18.486 6.90554 14.8744 4.60165 10.8777 4.60165C6.88103 4.60165 3.26325 6.90554 1.22214 10.7128L1.05103 11L1.20991 11.2933C3.26936 15.1005 6.88103 17.4044 10.8777 17.4044C14.8744 17.4044 18.4921 15.1311 20.5455 11.2933L20.7044 11L20.5455 10.7128ZM10.8777 16.1517C7.43714 16.1517 4.27769 14.2328 2.44436 11C4.27769 7.76721 7.43714 5.84832 10.8777 5.84832C14.3182 5.84832 17.441 7.77332 19.3049 11C17.441 14.2328 14.3121 16.1517 10.8777 16.1517Z" fill="white"/>
<path d="M11.055 15.2106C13.3703 15.2106 15.2472 13.3336 15.2472 11.0183C15.2472 8.70303 13.3703 6.82611 11.055 6.82611C8.73972 6.82611 6.86279 8.70303 6.86279 11.0183C6.86279 13.3336 8.73972 15.2106 11.055 15.2106Z" fill="white"/>
</g>
<defs>
<clipPath id="clip0_3450_8132">
<rect width="22" height="22" fill="white"/>
</clipPath>
</defs>
</svg>
