<svg width="24" height="24" viewBox="0 0 24 24" fill="none" xmlns="http://www.w3.org/2000/svg">
<g clip-path="url(#clip0_4538_1742)">
<path d="M24 12C24 18.65 18.6 24 12 24C5.4 24 0 18.6 0 12C0 5.4 5.4 0 12 0C18.6 0 24 5.4 24 12Z" fill="black"/>
<path d="M11.75 5.5C11.6 5.5 11.5 5.4 11.5 5.25V4.75C11.5 4.6 11.6 4.5 11.75 4.5C11.9 4.5 12 4.6 12 4.75V5.25C12 5.4 11.9 5.5 11.75 5.5Z" fill="white"/>
<path d="M17.5 11.25C17.35 11.25 17.25 11.15 17.25 11C17.25 7.95 14.8 5.5 11.75 5.5C8.7 5.5 6.25 7.95 6.25 11C6.25 11.15 6.15 11.25 6 11.25C5.85 11.25 5.75 11.15 5.75 11C5.75 7.7 8.45 5 11.75 5C15.05 5 17.75 7.7 17.75 11C17.75 11.15 17.65 11.25 17.5 11.25Z" fill="white"/>
<path d="M16 11.25C15.85 11.25 15.75 11.15 15.75 11C15.75 7.95 13.95 5.5 11.75 5.5C9.55 5.5 7.75 7.95 7.75 11C7.75 11.15 7.65 11.25 7.5 11.25C7.35 11.25 7.25 11.15 7.25 11C7.25 7.7 9.25 5 11.75 5C14.25 5 16.25 7.7 16.25 11C16.25 11.15 16.15 11.25 16 11.25Z" fill="white"/>
<path d="M13.5 11.25C13.35 11.25 13.25 11.15 13.25 11C13.25 7.6 12.4 5.5 11.75 5.5C11.1 5.5 10.25 7.6 10.25 11C10.25 11.15 10.15 11.25 10 11.25C9.85 11.25 9.75 11.15 9.75 11C9.75 8.1 10.45 5 11.75 5C13.05 5 13.75 8.1 13.75 11C13.75 11.15 13.65 11.25 13.5 11.25Z" fill="white"/>
<path d="M13.5 11.2504C13.35 11.2504 13.25 11.1504 13.25 11.0004C13.25 10.8004 12.7 10.5004 11.75 10.5004C10.8 10.5004 10.25 10.8004 10.25 11.0004C10.25 11.1504 10.15 11.2504 10 11.2504C9.85 11.2504 9.75 11.1504 9.75 11.0004C9.75 9.70039 13.75 9.70039 13.75 11.0004C13.75 11.1504 13.65 11.2504 13.5 11.2504Z" fill="white"/>
<path d="M10 11.25C9.85 11.25 9.75 11.15 9.75 11C9.75 10.75 9.3 10.5 8.75 10.5C8.2 10.5 7.75 10.75 7.75 11C7.75 11.15 7.65 11.25 7.5 11.25C7.35 11.25 7.25 11.15 7.25 11C7.25 10.45 7.9 10 8.75 10C9.6 10 10.25 10.45 10.25 11C10.25 11.15 10.15 11.25 10 11.25ZM16 11.25C15.85 11.25 15.75 11.15 15.75 11C15.75 10.75 15.3 10.5 14.75 10.5C14.2 10.5 13.75 10.75 13.75 11C13.75 11.15 13.65 11.25 13.5 11.25C13.35 11.25 13.25 11.15 13.25 11C13.25 10.45 13.9 10 14.75 10C15.6 10 16.25 10.45 16.25 11C16.25 11.15 16.15 11.25 16 11.25Z" fill="white"/>
<path d="M17.5 11.25C17.35 11.25 17.25 11.15 17.25 11C17.25 10.7 17.05 10.5 16.75 10.5C16.45 10.5 16.25 10.7 16.25 11C16.25 11.15 16.15 11.25 16 11.25C15.85 11.25 15.75 11.15 15.75 11C15.75 10.45 16.2 10 16.75 10C17.3 10 17.75 10.45 17.75 11C17.75 11.15 17.65 11.25 17.5 11.25ZM7.5 11.25C7.35 11.25 7.25 11.15 7.25 11C7.25 10.7 7.05 10.5 6.75 10.5C6.45 10.5 6.25 10.7 6.25 11C6.25 11.15 6.15 11.25 6 11.25C5.85 11.25 5.75 11.15 5.75 11C5.75 10.45 6.2 10 6.75 10C7.3 10 7.75 10.45 7.75 11C7.75 11.15 7.65 11.25 7.5 11.25ZM11 19.5C10.45 19.5 10 19.05 10 18.5C10 18.35 10.1 18.25 10.25 18.25C10.4 18.25 10.5 18.35 10.5 18.5C10.5 18.8 10.7 19 11 19C11.3 19 11.5 18.8 11.5 18.5V10.25C11.5 10.1 11.6 10 11.75 10C11.9 10 12 10.1 12 10.25V18.5C12 19.05 11.55 19.5 11 19.5Z" fill="white"/>
</g>
<defs>
<clipPath id="clip0_4538_1742">
<rect width="24" height="24" fill="white"/>
</clipPath>
</defs>
</svg>
