<svg width="25" height="24" viewBox="0 0 25 24" fill="none" xmlns="http://www.w3.org/2000/svg">
<path fill-rule="evenodd" clip-rule="evenodd" d="M3.02 7.823C2.5 8.77 2.5 9.915 2.5 12.203V13.725C2.5 17.625 2.5 19.576 3.672 20.788C4.843 22 6.729 22 10.5 22H14.5C18.271 22 20.157 22 21.328 20.788C22.5 19.576 22.5 17.626 22.5 13.725V12.204C22.5 9.915 22.5 8.771 21.98 7.823C21.462 6.874 20.513 6.286 18.616 5.108L16.616 3.867C14.611 2.622 13.608 2 12.5 2C11.392 2 10.39 2.622 8.384 3.867L6.384 5.108C4.487 6.286 3.539 6.874 3.02 7.823ZM11.75 18C11.75 18.1989 11.829 18.3897 11.9697 18.5303C12.1103 18.671 12.3011 18.75 12.5 18.75C12.6989 18.75 12.8897 18.671 13.0303 18.5303C13.171 18.3897 13.25 18.1989 13.25 18V15C13.25 14.8011 13.171 14.6103 13.0303 14.4697C12.8897 14.329 12.6989 14.25 12.5 14.25C12.3011 14.25 12.1103 14.329 11.9697 14.4697C11.829 14.6103 11.75 14.8011 11.75 15V18Z" fill="black"/>
</svg>
