<svg width="48" height="48" viewBox="0 0 48 48" fill="none" xmlns="http://www.w3.org/2000/svg">
<path d="M10 24V8M38 40V34M10 40V32M38 26V8M24 14V8M24 40V22" stroke="#F8F7F4" stroke-width="2" stroke-linecap="round"/>
<path d="M10 32C12.2091 32 14 30.2091 14 28C14 25.7909 12.2091 24 10 24C7.79086 24 6 25.7909 6 28C6 30.2091 7.79086 32 10 32Z" stroke="#F8F7F4" stroke-width="2" stroke-linecap="round"/>
<path d="M24 22C26.2091 22 28 20.2091 28 18C28 15.7909 26.2091 14 24 14C21.7909 14 20 15.7909 20 18C20 20.2091 21.7909 22 24 22Z" stroke="#F8F7F4" stroke-width="2" stroke-linecap="round"/>
<path d="M38 34C40.2091 34 42 32.2091 42 30C42 27.7909 40.2091 26 38 26C35.7909 26 34 27.7909 34 30C34 32.2091 35.7909 34 38 34Z" stroke="#F8F7F4" stroke-width="2" stroke-linecap="round"/>
</svg>
