<svg width="26" height="27" viewBox="0 0 26 27" fill="none" xmlns="http://www.w3.org/2000/svg">
<g clip-path="url(#clip0_4784_6418)">
<path fill-rule="evenodd" clip-rule="evenodd" d="M14.6826 3.34312C14.6826 3.09685 14.7804 2.86066 14.9545 2.68652C15.1287 2.51238 15.3649 2.41455 15.6111 2.41455H18.629C18.8753 2.41455 19.1115 2.51238 19.2856 2.68652C19.4597 2.86066 19.5576 3.09685 19.5576 3.34312V5.95612H22.1687C22.415 5.95612 22.6512 6.05395 22.8253 6.22809C22.9995 6.40224 23.0973 6.63842 23.0973 6.88469V9.90255C23.0973 10.1488 22.9995 10.385 22.8253 10.5591C22.6512 10.7333 22.415 10.8311 22.1687 10.8311H19.5576V13.4423C19.5576 13.6885 19.4597 13.9247 19.2856 14.0989C19.1115 14.273 18.8753 14.3708 18.629 14.3708H15.6111C15.3649 14.3708 15.1287 14.273 14.9545 14.0989C14.7804 13.9247 14.6826 13.6885 14.6826 13.4423V10.8311H12.0714C11.8252 10.8311 11.589 10.7333 11.4148 10.5591C11.2407 10.385 11.1429 10.1488 11.1429 9.90255V6.88469C11.1429 6.63842 11.2407 6.40224 11.4148 6.22809C11.589 6.05395 11.8252 5.95612 12.0714 5.95612H14.6826V3.34312ZM3.42271 13.4998H0V20.9284L3.39486 24.3233C4.08472 25.0133 4.90379 25.5607 5.80526 25.9342C6.70673 26.3077 7.67295 26.4999 8.64871 26.4998H19.5C20.2388 26.4998 20.9474 26.2063 21.4698 25.6839C21.9922 25.1615 22.2857 24.4529 22.2857 23.7141C22.2857 22.9753 21.9922 22.2667 21.4698 21.7443C20.9474 21.2219 20.2388 20.9284 19.5 20.9284H14.3427C14.1496 21.5795 13.7907 22.1692 13.3011 22.6397C12.8114 23.1102 12.2079 23.4454 11.5497 23.6125C10.8915 23.7795 10.2012 23.7726 9.54645 23.5925C8.8917 23.4124 8.29501 23.0652 7.81486 22.585L5.122 19.8921C5.0142 19.7843 4.92869 19.6564 4.87036 19.5155C4.81202 19.3747 4.78199 19.2237 4.78199 19.0713C4.78199 18.9188 4.81202 18.7679 4.87036 18.627C4.92869 18.4862 5.0142 18.3582 5.122 18.2504C5.2298 18.1426 5.35777 18.0571 5.49861 17.9988C5.63946 17.9404 5.79041 17.9104 5.94286 17.9104C6.0953 17.9104 6.24626 17.9404 6.3871 17.9988C6.52794 18.0571 6.65592 18.1426 6.76371 18.2504L9.45657 20.9433C9.74022 21.2263 10.1199 21.3924 10.5203 21.4085C10.9207 21.4247 11.3125 21.2897 11.618 21.0305C11.9235 20.7712 12.1205 20.4066 12.1697 20.009C12.219 19.6113 12.1169 19.2096 11.8839 18.8837L8.67657 15.6764C7.9867 14.9863 7.16764 14.4389 6.26617 14.0655C5.3647 13.692 4.39848 13.4998 3.42271 13.4998Z" fill="white"/>
</g>
<defs>
<clipPath id="clip0_4784_6418">
<rect width="26" height="26" fill="white" transform="translate(0 0.5)"/>
</clipPath>
</defs>
</svg>
