<svg width="18" height="19" viewBox="0 0 18 19" fill="none" xmlns="http://www.w3.org/2000/svg">
<path d="M16.8983 11.6375L16.509 11.5242C16.4916 11.4341 16.4655 11.347 16.4364 11.2569C16.8663 10.2576 17.0871 9.19145 17.0871 8.08464C17.0871 3.62545 13.4588 0 8.99959 0C4.5404 0 0.912047 3.62545 0.912047 8.08464C0.912047 9.16239 1.12411 10.2082 1.53372 11.1988C1.47852 11.3353 1.43495 11.4777 1.41752 11.62L1.03987 11.7449C0.656406 11.8728 0.342666 12.1429 0.162555 12.5032C-0.0204603 12.8634 -0.0495104 13.2759 0.07831 13.6593L0.473391 14.8533C0.601211 15.2397 0.871377 15.5505 1.2316 15.7335C1.44657 15.841 1.67606 15.8933 1.90846 15.8933C2.06824 15.8933 2.23092 15.8672 2.38779 15.8178L2.76544 15.687C3.07628 16.0066 3.50041 16.1838 3.93616 16.1838C4.0756 16.1838 4.21504 16.1606 4.35158 16.1257C4.38934 16.3174 4.47068 16.5411 4.63627 16.7532C5.12431 17.3807 6.12654 17.7293 7.60809 17.7961C7.65457 18.1098 7.9044 18.3567 8.22105 18.3974L9.83333 18.5891C9.86238 18.5921 9.88852 18.595 9.91757 18.595C10.089 18.595 10.2575 18.531 10.3882 18.4148C10.5363 18.2812 10.6235 18.0895 10.6235 17.8861V16.7416C10.6235 16.5411 10.5363 16.3465 10.3882 16.2128C10.2371 16.0792 10.0338 16.0153 9.83333 16.0415L8.22105 16.2332C7.86664 16.2768 7.59937 16.576 7.59937 16.9333V17.2383C6.01615 17.1628 5.36252 16.759 5.09235 16.4249C4.95001 16.2448 4.90643 16.0763 4.89772 15.9572L5.04878 15.9078C5.19984 15.8613 5.32185 15.7568 5.39157 15.6115C5.46129 15.4721 5.47291 15.3094 5.42352 15.1641L3.86935 10.458C3.82287 10.3128 3.71828 10.1908 3.57594 10.1181C3.47426 10.0688 3.36387 10.0484 3.25639 10.0571C3.03561 9.42675 2.92812 8.76731 2.92812 8.08754C2.92812 4.74097 5.65302 2.01608 8.99959 2.01608C12.3462 2.01608 15.0711 4.74097 15.0711 8.08754C15.0711 8.77022 14.9519 9.43256 14.737 10.0629C14.5888 10.0223 14.432 10.0426 14.2983 10.1181C14.1618 10.1937 14.063 10.3215 14.0194 10.4696L12.6657 15.2368C12.6221 15.3878 12.6425 15.5476 12.718 15.6841C12.7935 15.8236 12.9213 15.9194 13.0724 15.963L13.6767 16.1344C13.8248 16.178 13.9759 16.1983 14.124 16.1983C14.5859 16.1983 15.0304 16.0008 15.3441 15.6493L15.7305 15.7597C15.8699 15.8003 16.0065 15.8178 16.1459 15.8178C16.8053 15.8178 17.4125 15.382 17.6013 14.7168L17.9441 13.5054C18.1678 12.7007 17.7001 11.8641 16.8983 11.6375ZM8.16295 16.9304C8.16295 16.8578 8.21524 16.7968 8.29077 16.788L9.90305 16.5963H9.92048C9.96696 16.5963 9.99891 16.6195 10.0163 16.6341C10.0338 16.6515 10.0628 16.6835 10.0628 16.7416V17.8861C10.0628 17.9413 10.0309 17.9791 10.0163 17.9965C9.99891 18.011 9.95824 18.0401 9.90305 18.0314L8.29077 17.8397C8.21814 17.8309 8.16295 17.7699 8.16295 17.6973V16.9304ZM2.20768 15.2803C1.96947 15.3588 1.70802 15.3384 1.48433 15.2281C1.25484 15.1148 1.08635 14.9172 1.00791 14.679L0.612831 13.4792C0.531491 13.241 0.551826 12.9796 0.662216 12.7559C0.778417 12.5264 0.973052 12.3579 1.21417 12.2795L1.44657 12.2039C1.45819 12.2504 1.4669 12.3056 1.48433 12.3521L2.37617 15.0596C2.3936 15.1089 2.41975 15.1554 2.43718 15.199L2.20768 15.2803ZM3.28253 10.6236L3.30287 10.6178C3.30577 10.6149 3.30868 10.6149 3.30868 10.6149C3.3203 10.6149 3.33482 10.6236 3.33773 10.6352L4.74085 14.8795L4.89191 15.3559C4.889 15.3617 4.88319 15.3646 4.87738 15.3675L4.27605 15.565C3.84029 15.7103 3.35806 15.5621 3.07918 15.1932C3.00946 15.1002 2.95427 14.9957 2.9165 14.8824L2.02176 12.172C1.98109 12.0645 1.96656 11.9454 1.96656 11.8263C1.96656 11.6636 2.01014 11.4922 2.09148 11.3353C2.22511 11.0884 2.44299 10.9025 2.70734 10.8124L3.28253 10.6236ZM8.99959 1.4496C5.33928 1.4496 2.36455 4.42723 2.36455 8.08464C2.36455 8.8167 2.48947 9.52843 2.72187 10.214L2.52433 10.2779C2.29483 10.3534 2.09439 10.4842 1.92008 10.6439C1.62377 9.82764 1.47271 8.96776 1.47271 8.08464C1.47562 3.93919 4.85124 0.563572 8.99959 0.563572C13.145 0.563572 16.5236 3.93919 16.5236 8.08464C16.5236 8.97647 16.3696 9.84217 16.0675 10.6614C15.8699 10.4609 15.6259 10.3128 15.3499 10.2343L15.2773 10.214C15.5097 9.53133 15.6346 8.8196 15.6346 8.08464C15.6346 4.42723 12.657 1.4496 8.99959 1.4496ZM15.1582 14.8475C15.1233 14.9637 15.074 15.0683 15.0071 15.167C14.7457 15.5476 14.2722 15.719 13.8306 15.5912L13.2264 15.4198C13.2118 15.414 13.206 15.3965 13.2089 15.3849L14.5627 10.6207C14.5656 10.6091 14.5772 10.6004 14.5888 10.6004H14.5917L15.196 10.7718C15.501 10.8618 15.7508 11.0768 15.8816 11.3644C15.9397 11.4893 15.9716 11.62 15.9774 11.7537V11.7624C15.9861 11.8786 15.9716 11.9948 15.9367 12.1081L15.1582 14.8475ZM17.4009 13.3514L17.0552 14.5628C16.9128 15.0654 16.3841 15.3588 15.8845 15.2164L15.6492 15.1496C15.6666 15.1031 15.6898 15.0538 15.7014 15.0044L16.48 12.2649C16.4974 12.2156 16.5032 12.1633 16.5148 12.111L16.7501 12.1778C17.2469 12.3201 17.5432 12.8488 17.4009 13.3514Z" fill="#16EBD3"/>
<path d="M10.0627 16.739V17.8836C10.0627 17.9388 10.0308 17.9766 10.0162 17.994C9.99881 18.0085 9.95814 18.0376 9.90294 18.0289L8.29066 17.8371C8.21804 17.8284 8.16284 17.7674 8.16284 17.6948V16.9337C8.16284 16.8611 8.21513 16.8001 8.29066 16.7913L9.90294 16.5996H9.92037C9.96685 16.5996 9.99881 16.6228 10.0162 16.6374C10.0308 16.649 10.0627 16.6839 10.0627 16.739Z" fill="#16EBD3"/>
<path d="M16.5235 8.08454C16.5235 8.97638 16.3695 9.84207 16.0674 10.6613C15.8699 10.4608 15.6259 10.3127 15.3499 10.2342L15.2773 10.2139C15.5097 9.53124 15.6346 8.81951 15.6346 8.08454C15.6346 4.42714 12.6569 1.4495 8.99953 1.4495C5.33922 1.4495 2.36449 4.42714 2.36449 8.08454C2.36449 8.8166 2.48941 9.52833 2.72181 10.2139L2.52427 10.2778C2.29477 10.3534 2.09433 10.4841 1.92003 10.6439C1.62372 9.82755 1.47266 8.96766 1.47266 8.08454C1.47556 3.9391 4.85118 0.563477 8.99953 0.563477C13.145 0.563477 16.5235 3.9391 16.5235 8.08454Z" fill="#16EBD3"/>
<path d="M16.5235 8.08454C16.5235 8.97638 16.3695 9.84207 16.0674 10.6613C15.9599 10.5538 15.8379 10.4579 15.7071 10.3853C15.8727 9.77235 15.9541 9.13034 15.9541 8.47962C15.9541 4.33418 12.5755 0.958558 8.4301 0.958558C6.96017 0.958558 5.589 1.37978 4.427 2.11766C5.69649 1.14448 7.28262 0.563477 8.99948 0.563477C13.1449 0.563477 16.5235 3.9391 16.5235 8.08454Z" fill="#16EBD3"/>
<path d="M2.44296 15.1984L2.21056 15.2768C1.97235 15.3552 1.7109 15.3349 1.48721 15.2245C1.25772 15.1112 1.08923 14.9137 1.01079 14.6755L0.612807 13.4786C0.531467 13.2404 0.551802 12.9789 0.662192 12.7553C0.778392 12.5258 0.973028 12.3573 1.21414 12.2788L1.44654 12.2033C1.45816 12.2498 1.46688 12.305 1.48431 12.3515L2.37615 15.0589C2.39648 15.1083 2.42263 15.1548 2.44296 15.1984ZM17.4008 13.3508L17.0552 14.5622C16.9128 15.0647 16.3841 15.3582 15.8844 15.2158L15.6491 15.149C15.6666 15.1025 15.6898 15.0531 15.7014 15.0037L16.48 12.2643C16.4974 12.2149 16.5032 12.1626 16.5148 12.1104L16.7501 12.1772C17.2469 12.3195 17.5432 12.8482 17.4008 13.3508Z" fill="#16EBD3"/>
<path d="M15.9745 11.7568V11.7655C15.9832 11.8817 15.9687 11.9979 15.9339 12.1112L15.1553 14.8506C15.1204 14.9668 15.0711 15.0714 15.0042 15.1702C14.7428 15.5507 14.2693 15.7221 13.8277 15.5943L13.2235 15.4229C13.209 15.4171 13.2031 15.3997 13.206 15.3881L14.5598 10.6239C14.5627 10.6122 14.5743 10.6035 14.5859 10.6035H14.5888L15.1931 10.7749C15.4981 10.865 15.7479 11.0799 15.8787 11.3675C15.9368 11.4895 15.9687 11.6232 15.9745 11.7568Z" fill="#16EBD3"/>
<path d="M15.9745 11.7572V11.7659C15.9832 11.8821 15.9687 11.9983 15.9339 12.1116L15.1553 14.851C15.1204 14.9672 15.0711 15.0718 15.0042 15.1706C14.7428 15.5511 14.2693 15.7225 13.8277 15.5947L13.2235 15.4233C13.209 15.4175 13.2031 15.4001 13.206 15.3884L13.2409 15.2693L13.299 15.2868C13.7406 15.4146 14.2141 15.2403 14.4784 14.8626C14.5453 14.7639 14.5946 14.6593 14.6295 14.5431L15.408 11.8037C15.44 11.6875 15.4545 11.5713 15.4458 11.458V11.4493C15.44 11.3156 15.4109 11.1849 15.3528 11.06C15.3035 10.9467 15.2308 10.8479 15.1495 10.7637L15.196 10.7753C15.501 10.8653 15.7508 11.0803 15.8816 11.3679C15.9368 11.4899 15.9687 11.6236 15.9745 11.7572Z" fill="#16EBD3"/>
<path d="M4.88899 15.3552C4.88609 15.361 4.88028 15.3639 4.87447 15.3669L4.27313 15.5644C3.83738 15.7096 3.35515 15.5615 3.07627 15.1925C3.00655 15.0996 2.95135 14.995 2.91359 14.8817L2.02175 12.1713C1.98108 12.0639 1.96655 11.9448 1.96655 11.8256C1.96655 11.663 2.01013 11.4916 2.09147 11.3347C2.2251 11.0878 2.44297 10.9019 2.70733 10.8118L3.28252 10.623L3.30286 10.6172C3.30576 10.6143 3.30867 10.6143 3.30867 10.6143C3.32029 10.6143 3.33481 10.623 3.33772 10.6346L4.74083 14.8788L4.88899 15.3552Z" fill="#16EBD3"/>
<path d="M4.88899 15.3558C4.88609 15.3616 4.88028 15.3645 4.87447 15.3675L4.27313 15.565C3.83738 15.7102 3.35515 15.5621 3.07627 15.1932C3.00655 15.1002 2.95135 14.9956 2.91359 14.8823L2.02175 12.1719C1.98108 12.0645 1.96655 11.9454 1.96655 11.8262C1.96655 11.6636 2.01013 11.4922 2.09147 11.3353C2.2251 11.0884 2.44297 10.9025 2.70733 10.8124L2.74219 10.8008C2.67537 10.8705 2.61437 10.9518 2.56789 11.0419C2.48655 11.1959 2.44297 11.3673 2.44297 11.5328C2.44297 11.6549 2.4604 11.7711 2.49817 11.8785L3.39001 14.5889C3.43068 14.7022 3.48297 14.8068 3.55269 14.8997C3.83157 15.2687 4.3138 15.4168 4.74955 15.2716L4.85123 15.2367L4.88899 15.3558Z" fill="#16EBD3"/>
</svg>
