<svg width="20" height="20" viewBox="0 0 20 20" fill="none" xmlns="http://www.w3.org/2000/svg">
    <path d="M10.3138 19.2013C15.6161 19.2013 19.9144 14.9029 19.9144 9.60064C19.9144 4.29835 15.6161 0 10.3138 0C5.01149 0 0.713135 4.29835 0.713135 9.60064C0.713135 14.9029 5.01149 19.2013 10.3138 19.2013Z" fill="#1DA1F2"/>
    <path fill-rule="evenodd" clip-rule="evenodd" d="M16.0745 5.90654C15.651 6.09471 15.1951 6.22144 14.7171 6.27866C15.2051 5.98604 15.5799 5.52295 15.7561 4.97115C15.3 5.24223 14.7935 5.43846 14.2555 5.54484C13.8242 5.08559 13.2095 4.79834 12.5302 4.79834C11.225 4.79834 10.1666 5.85667 10.1666 7.16187C10.1666 7.34693 10.1878 7.52742 10.2281 7.70061C8.26354 7.6023 6.52208 6.6611 5.35628 5.23109C5.15274 5.58017 5.03638 5.98604 5.03638 6.41922C5.03638 7.23906 5.45305 7.96252 6.0878 8.38644C5.69993 8.37415 5.33592 8.26777 5.0168 8.09074V8.12031C5.0168 9.26581 5.83204 10.2208 6.91264 10.4385C6.71448 10.4923 6.50557 10.5215 6.29018 10.5215C6.13772 10.5215 5.98949 10.5065 5.84509 10.4788C6.14579 11.4177 7.01901 12.1013 8.0531 12.1205C7.24439 12.7541 6.22528 13.1323 5.1178 13.1323C4.92655 13.1323 4.73843 13.1211 4.55371 13.0989C5.59975 13.7694 6.84198 14.161 8.17675 14.161C12.524 14.161 14.9014 10.5595 14.9014 7.4364C14.9014 7.33387 14.8995 7.23177 14.8945 7.13077C15.3568 6.79667 15.7577 6.38043 16.0745 5.90654Z" fill="white"/>
    </svg>
    