<svg width="196" height="194" viewBox="0 0 196 194" fill="none" xmlns="http://www.w3.org/2000/svg">
<g opacity="0.8">
<path d="M133.395 211.271V164.396H164.645L125.582 117.521L86.5198 164.396H117.77V211.271H78.7073V210.88C77.3948 210.958 76.1448 211.271 74.801 211.271C59.261 211.271 44.3574 205.098 33.369 194.109C22.3805 183.121 16.2073 168.217 16.2073 152.677C16.2073 122.615 38.9417 98.1147 68.1135 94.7554C70.6712 81.385 77.8081 69.3237 88.2965 60.6461C98.785 51.9685 111.969 47.2168 125.582 47.2085C139.197 47.216 152.384 51.967 162.875 60.6445C173.366 69.3219 180.506 81.3836 183.067 94.7554C212.239 98.1147 234.942 122.615 234.942 152.677C234.942 168.217 228.768 183.121 217.78 194.109C206.791 205.098 191.888 211.271 176.348 211.271C175.035 211.271 173.77 210.958 172.442 210.88V211.271H133.395Z" fill="#083538"/>
</g>
</svg>
