<svg width="18" height="19" viewBox="0 0 18 19" fill="none" xmlns="http://www.w3.org/2000/svg">
<g clip-path="url(#clip0_2983_29952)">
<path d="M13.5 1.625C13.7984 1.625 14.0845 1.74353 14.2955 1.9545C14.5065 2.16548 14.625 2.45163 14.625 2.75V14.8494C14.625 14.8494 13.5 12.875 9 12.875C4.5 12.875 3.375 14.8494 3.375 14.8494V2.75C3.375 2.45163 3.49353 2.16548 3.7045 1.9545C3.91548 1.74353 4.20163 1.625 4.5 1.625H13.5ZM4.5 0.5C3.90326 0.5 3.33097 0.737053 2.90901 1.15901C2.48705 1.58097 2.25 2.15326 2.25 2.75V16.25C2.25 16.8467 2.48705 17.419 2.90901 17.841C3.33097 18.2629 3.90326 18.5 4.5 18.5H13.5C14.0967 18.5 14.669 18.2629 15.091 17.841C15.5129 17.419 15.75 16.8467 15.75 16.25V2.75C15.75 2.15326 15.5129 1.58097 15.091 1.15901C14.669 0.737053 14.0967 0.5 13.5 0.5L4.5 0.5Z" fill="#16EBD3" fill-opacity="0.8"/>
<path d="M9 11.75C9.44321 11.75 9.88208 11.6627 10.2916 11.4931C10.701 11.3235 11.0731 11.0749 11.3865 10.7615C11.6999 10.4481 11.9485 10.076 12.1181 9.66656C12.2877 9.25708 12.375 8.81821 12.375 8.375C12.375 7.93179 12.2877 7.49292 12.1181 7.08344C11.9485 6.67397 11.6999 6.30191 11.3865 5.98851C11.0731 5.67512 10.701 5.42652 10.2916 5.25691C9.88208 5.0873 9.44321 5 9 5C8.10489 5 7.24645 5.35558 6.61351 5.98851C5.98058 6.62145 5.625 7.47989 5.625 8.375C5.625 9.27011 5.98058 10.1286 6.61351 10.7615C7.24645 11.3944 8.10489 11.75 9 11.75Z" fill="#16EBD3" fill-opacity="0.8"/>
</g>
<defs>
<clipPath id="clip0_2983_29952">
<rect width="18" height="18" fill="white" transform="translate(0 0.5)"/>
</clipPath>
</defs>
</svg>
