<svg width="35" height="34" viewBox="0 0 35 34" fill="none" xmlns="http://www.w3.org/2000/svg">
    <path d="M27.6999 10.2002H6.4499V9.35022L25.1499 7.85422V9.35022H27.6999V6.80022C27.6999 4.93022 26.1852 3.61782 24.3356 3.88132L7.2659 6.31912C5.4146 6.58432 3.8999 8.33022 3.8999 10.2002V27.2002C3.8999 28.102 4.25812 28.9668 4.89574 29.6044C5.53336 30.242 6.39817 30.6002 7.2999 30.6002H27.6999C28.6016 30.6002 29.4664 30.242 30.1041 29.6044C30.7417 28.9668 31.0999 28.102 31.0999 27.2002V13.6002C31.0999 12.6985 30.7417 11.8337 30.1041 11.1961C29.4664 10.5584 28.6016 10.2002 27.6999 10.2002ZM25.1499 22.1104C24.8149 22.1103 24.4832 22.0442 24.1738 21.9159C23.8644 21.7876 23.5832 21.5996 23.3464 21.3627C23.1096 21.1257 22.9218 20.8445 22.7937 20.535C22.6657 20.2254 22.5998 19.8937 22.5999 19.5587C22.6 19.2237 22.6661 18.8921 22.7944 18.5826C22.9227 18.2732 23.1107 17.992 23.3476 17.7552C23.5846 17.5185 23.8658 17.3307 24.1754 17.2026C24.4849 17.0745 24.8166 17.0086 25.1516 17.0087C25.8281 17.0089 26.4769 17.2779 26.9551 17.7564C27.4333 18.235 27.7018 18.8839 27.7016 19.5604C27.7014 20.2369 27.4324 20.8857 26.9539 21.3639C26.4753 21.8421 25.8264 22.1106 25.1499 22.1104Z" fill="url(#paint0_radial_2787_9)"/>
    <defs>
    <radialGradient id="paint0_radial_2787_9" cx="0" cy="0" r="1" gradientUnits="userSpaceOnUse" gradientTransform="translate(7.8999 7.36775) rotate(47.0856) scale(31.7225 28.8802)">
    <stop stop-color="#F9AD09"/>
    <stop offset="0.995" stop-color="#B19804"/>
    </radialGradient>
    </defs>
    </svg>
    